<svg xmlns="http://www.w3.org/2000/svg" xmlns:xlink="http://www.w3.org/1999/xlink" viewBox="0 0 273.41 329.35"><defs><style>.cls-1,.cls-23{fill:none;}.cls-1{clip-rule:evenodd;}.cls-10,.cls-11,.cls-12,.cls-14,.cls-15,.cls-16,.cls-17,.cls-18,.cls-2,.cls-20,.cls-21,.cls-22,.cls-23,.cls-24,.cls-25,.cls-26,.cls-27,.cls-28,.cls-29,.cls-30,.cls-31,.cls-32,.cls-33,.cls-34,.cls-35,.cls-36,.cls-4,.cls-5,.cls-6,.cls-7,.cls-8{fill-rule:evenodd;}.cls-2{fill:url(#linear-gradient);}.cls-3{fill:#4b402e;}.cls-4{fill:#3f2e2e;}.cls-5{fill:url(#linear-gradient-3);}.cls-6{fill:#403628;}.cls-7{fill:url(#linear-gradient-4);}.cls-14,.cls-8{fill:#997c56;}.cls-8{opacity:0.5;}.cls-31,.cls-9{fill:#705d45;}.cls-10{fill:#574936;}.cls-11{fill:url(#linear-gradient-5);}.cls-12{fill:#4c3c25;}.cls-13{fill:url(#linear-gradient-6);}.cls-15{fill:#413628;}.cls-16{fill:#282219;}.cls-17{fill:#b19572;}.cls-18{fill:#0a0700;}.cls-19{clip-path:url(#clip-path);}.cls-20{fill:#763232;}.cls-21{fill:url(#New_Gradient_Swatch_1);}.cls-22,.cls-26{fill:#c4ba94;}.cls-22{opacity:0.3;}.cls-24{fill:#827648;}.cls-27{fill:#212121;}.cls-28{fill:#201d12;}.cls-29{fill:#fff;}.cls-30{fill:#c473b2;}.cls-32{fill:url(#linear-gradient-7);}.cls-33{fill:#5c4931;}.cls-34{fill:#6a5840;}.cls-35{fill:#be4242;}.cls-36{fill:url(#linear-gradient-8);}</style><linearGradient id="linear-gradient" x1="73.28" y1="186.27" x2="56.06" y2="125.17" gradientUnits="userSpaceOnUse"><stop offset="0" stop-color="#4f3d26"/><stop offset="0.12" stop-color="#524029"/><stop offset="1" stop-color="#67533a"/></linearGradient><linearGradient id="linear-gradient-3" x1="93.92" y1="296.06" x2="25.33" y2="296.06" xlink:href="#linear-gradient"/><linearGradient id="linear-gradient-4" x1="173.7" y1="323.35" x2="172.65" y2="247.41" xlink:href="#linear-gradient"/><linearGradient id="linear-gradient-5" x1="138.51" y1="35.88" x2="167.18" y2="136.82" gradientUnits="userSpaceOnUse"><stop offset="0" stop-color="#997c56"/><stop offset="0.54" stop-color="#7c6446"/><stop offset="1" stop-color="#67533a"/></linearGradient><linearGradient id="linear-gradient-6" x1="131.38" y1="302.29" x2="187.42" y2="299.67" xlink:href="#linear-gradient-5"/><clipPath id="clip-path"><path class="cls-1" d="M117.64,68.34a20.16,20.16,0,0,0,.25,7.14c1.68,6.66,8.8,10.06,14.74,6,4.07-2.78,6.09-7.89,6.4-12.65l-21.39-.49Z"/></clipPath><linearGradient id="New_Gradient_Swatch_1" x1="124.09" y1="47.67" x2="124.09" y2="80.55" gradientUnits="userSpaceOnUse"><stop offset="0" stop-color="#b1a372"/><stop offset="0.38" stop-color="#a99a63"/><stop offset="1" stop-color="#9e8d4e"/></linearGradient><linearGradient id="linear-gradient-7" x1="195.53" y1="14.2" x2="180.4" y2="28.28" gradientUnits="userSpaceOnUse"><stop offset="0" stop-color="#d2a2a2"/><stop offset="0.01" stop-color="#d2a2a2"/><stop offset="1" stop-color="#cf8d8d"/></linearGradient><linearGradient id="linear-gradient-8" x1="211.81" y1="218.01" x2="203.66" y2="270.6" xlink:href="#linear-gradient-5"/></defs><title>Asset 1</title><g id="Layer_2" data-name="Layer 2"><g id="Layer_1-2" data-name="Layer 1"><path class="cls-2" d="M115,162c-22.1-.39-42.37-3.05-61.31-15.81-22.39-15.09-23.37-50.38-42.16-44.07-20.84,7-9.43,52.48,3.1,67.57,20.49,24.69,46.05,37,77.82,33.46C127.6,199.3,139.15,162.46,115,162Z"/><path class="cls-2" d="M115,162c-22.1-.39-42.37-3.05-61.31-15.81-22.39-15.09-23.37-50.38-42.16-44.07-20.84,7-9.43,52.48,3.1,67.57,20.49,24.69,46.05,37,77.82,33.46C127.6,199.3,139.15,162.46,115,162Z"/><path class="cls-3" d="M94.27,194.36c-17.22,8.33-28,1.11-35.83-8.06s-17.22-7.77-28.89-11.66c-8.29-2.77-19.39-16.77-25.12-25,2.73,8.2,6.4,15.54,10.19,20.1,20.49,24.69,46.05,37,77.82,33.46a49.71,49.71,0,0,0,9.66-2C102.43,195.1,100.69,191.25,94.27,194.36Z"/><path class="cls-4" d="M16.11,268.73a2.59,2.59,0,0,1-4,3.31,20.55,20.55,0,0,0-2.93-3.83,21.73,21.73,0,0,0-3.87-3.13,1.11,1.11,0,0,1,.9-2,24.54,24.54,0,0,1,5.21,2.22,24.92,24.92,0,0,1,4.68,3.46Z"/><path class="cls-4" d="M15.58,268.63a2.59,2.59,0,0,1-1.73,4.88,19.81,19.81,0,0,0-4.36-1.73,21.16,21.16,0,0,0-4.84-.68,1.11,1.11,0,0,1-.27-2.2,23.87,23.87,0,0,1,5.49-.8,23.56,23.56,0,0,1,5.71.53Z"/><path class="cls-5" d="M82.93,272.71c-17.31-.12-34.31,1.74-49.11,11.26-5.16-8.64-14.3-16.1-23.9-20.33.82,12.69,6.13,21.67,8.59,33.44,2.13,10.23-.14,16.65,4.66,30.52,33.95,1.33,60.81.93,94.75.33l-35-55.22Z"/><path class="cls-6" d="M17.44,283.78c-4.06,12.18-4,29.74,7,38.58l-7-38.58Z"/><path class="cls-6" d="M12.34,271.8c-3.1,2.39-3.69,8,3.36,10.7l-3.36-10.7Z"/><path class="cls-4" d="M15.63,268.05a10,10,0,0,0-1.89-4.12,18.25,18.25,0,0,0-4.55-4.19,1.11,1.11,0,0,0-1.53,1.61,17.58,17.58,0,0,1,2.28,3.71,11.82,11.82,0,0,1,1,3.55c2.09-.93,2.59-.72,4.66-.56Z"/><path class="cls-7" d="M131.29,137.18C97.35,171,68.28,215.11,73.1,264.94c1.15,11.88,3,24.51,9.31,34.81,9.39,15.26,15.48,20.5,27.06,28.38,40.12.52,93.72-1.81,129.89-1.3,21.71-5.26,27.85-5.91,32.63-23.63,7.89-29.23-19.14-117.59-32.87-160.82-8.18-25.8-27.68-69.69-35.1-80-10.05,12.82-60.08,62.19-72.73,74.81Z"/><path class="cls-8" d="M169.9,210c8.82-7.23,13.41-18.71,14.24-30.08s-1.71-22.75-5.09-33.64c-1.78-5.72-4.26-11.91-9.62-14.58-4.46-2.22-9.78-1.4-14.65-.38a235.06,235.06,0,0,0-23.94,6.37C110.54,158,92,182,81.55,208.67a10.38,10.38,0,0,0,4,2.63c5.56,2,11.55-1.11,16.43-4.41s10.12-7.08,16-6.64c8,.6,13.19,8.61,20,12.91C147.68,219.22,161.08,217.18,169.9,210Z"/><path class="cls-9" d="M131.48,15.21c.21-4.54.47-9.89,3.18-13.74,1.27-1.82,3.08-2,4.4-.15a11,11,0,0,1,1.71,6.36c-.14,7.65-5,14.91-8.92,21.14,0,0-10.14-13.55-11.11-19.54-.66-4,.4-6.17,2-6.63,1.9-.55,3.6,2.2,4.46,3.54a40.58,40.58,0,0,1,4.32,9"/><path class="cls-10" d="M94.72,33.79s-5.31-9.35-11.5-14.34c-2.29-1.85-4.78-4.43-8-4.84-6.13-.75-7.92,6.27-6.64,10.19,3.06,9.4,16.49,12.1,26.19,9Z"/><path class="cls-11" d="M85.62,30.49c-5.92,27.33-6.45,54.29,4.71,80.21,7.21,16.74,13.21,27.2,25.58,40.47,10.93,11.73,20.16,17.52,30.4,17.21,13.9-.41,17.95-10.3,51.53-21.08,11.94-3.83,24.19-4.21,41.28-4.92C223.68,97.26,205.51,56.79,176.92,25c-18.93-2.63-31.21-3.53-53.79-1.62-9.48.81-27.24,4.36-37.51,7.16Z"/><path class="cls-4" d="M115.56,269a2.59,2.59,0,0,1-4.94,1.54,11.51,11.51,0,0,0-.9-3.54,8.49,8.49,0,0,0-2.25-3,1.11,1.11,0,1,1,1.1-1.92,11.44,11.44,0,0,1,4.14,2.72,15.51,15.51,0,0,1,2.85,4.18Z"/><path class="cls-4" d="M123.84,267a2.59,2.59,0,0,1-5.14-.67,11.31,11.31,0,0,0,.67-3.6,8.59,8.59,0,0,0-.78-3.64,1.11,1.11,0,0,1,1.8-1.29A11.28,11.28,0,0,1,123,262a15.21,15.21,0,0,1,.84,5Z"/><path class="cls-4" d="M133.94,269.66a2.59,2.59,0,0,1-4.62-2.34,12.55,12.55,0,0,0,1.43-2.23,8.76,8.76,0,0,0,.81-2.49,9.1,9.1,0,0,0,.1-1.05,8,8,0,0,0,0-1.09,1.11,1.11,0,1,1,2.13-.62,11.36,11.36,0,0,1,.51,1.28,12.92,12.92,0,0,1,.35,1.36,12.32,12.32,0,0,1,.13,3.64,16.39,16.39,0,0,1-.8,3.54Z"/><path class="cls-12" d="M243.34,225.49s17.4,41.85-20.37,67.77L200.38,277Z"/><path class="cls-13" d="M138.29,286.46s13.82-15,41-16.53,72.2,27.7,70.08,39.77-10,17.13-10,17.13-37,3.91-92.25,2Z"/><path class="cls-14" d="M122.15,328.51C112.6,324.37,110.32,312.2,109,301c-1.41-12.17-6.35-36.86,13.85-38.33,7.79-.56,15.92,4.31,20.63,14.66,7.88,17.3,7.42,34,3.61,51.48l-25-.31Z"/><path class="cls-15" d="M123.13,282.94c-12.3,1.06-10.76,19.56-7.13,28.68,1.2,3,2.84,6.74,5.86,8.85,3.57,2.5,7.8,1.44,10.68-1.4s6-9.28,4.82-18.49c-.9-7.21-6.73-18.29-14.23-17.64Z"/><path class="cls-15" d="M112.17,271.74c-3.24.59-2.09,4.57-.75,6.45a4.79,4.79,0,0,0,1.93,1.75,2.49,2.49,0,0,0,2.8-.61,4.08,4.08,0,0,0,.54-4.16c-.54-1.54-2.54-3.78-4.52-3.43Z"/><path class="cls-15" d="M121.12,267c-2.27,0-3.18,2.36-3,5.16.27,3.94,3.49,4.16,4.38,3.61a4.78,4.78,0,0,0,1.94-4.14c0-1.71-1.23-4.64-3.33-4.63Z"/><path class="cls-15" d="M132.54,269.09c-2.15-.6-3.52,1.46-4.4,4.16-1.07,3.32,1.51,4.87,2.55,4.57A5.38,5.38,0,0,0,134,274.4c.61-1.63.5-4.76-1.49-5.31Z"/><path class="cls-16" d="M28,114.14c-.19-1.25-3.21-7.32-13.29-2.88-2.58,1.14-5.17,2.6-6.66,5C1.48,127,23.9,131.43,27.52,119.81a11.85,11.85,0,0,0,.46-5.67Z"/><path class="cls-17" d="M114,67.58c-.75,2.73-.07,5.74.82,8.35a19.62,19.62,0,0,0,3.89,7.29c3.86,4,10.26,4,15.12,1.52,6.58-3.34,7.56-10.16,8.62-16.69L114,67.58"/><path class="cls-18" d="M117.64,68.34a20.16,20.16,0,0,0,.25,7.14c1.68,6.66,8.8,10.06,14.74,6,4.07-2.78,6.09-7.89,6.4-12.65l-21.39-.49Z"/><g class="cls-19"><path class="cls-20" d="M119.5,82.22c1.17-3,5-6.41,8.12-3.71a5.48,5.48,0,0,1,1.09,1.27c2.63-6.79,11.93-3.4,10.61.56l-9.54,3.86-10.28-2Z"/></g><path class="cls-21" d="M136.55,79.25C144.26,76,152.8,68.08,150,59.44,144.47,42.88,121.39,41.23,108.24,49,104.29,51.29,97.56,56,97.68,64.15c.28,20.43,24.8,20.94,38.87,15.1"/><path class="cls-22" d="M108.24,49c-3.69,2.17-9.8,6.46-10.5,13.64,4.74,3.06,11.52,4.92,19,4.76,14.1-.31,25.38-7.57,25.19-16.23a9.37,9.37,0,0,0-.37-2.36C132.09,42.71,117.64,43.44,108.24,49Z"/><path class="cls-23" d="M136.55,79.25C144.26,76,152.8,68.08,150,59.44,144.47,42.88,121.39,41.23,108.24,49,104.29,51.29,97.56,56,97.68,64.15c.28,20.43,24.8,20.94,38.87,15.1"/><path class="cls-23" d="M136.55,79.25C144.26,76,152.8,68.08,150,59.44,144.47,42.88,121.39,41.23,108.24,49,104.29,51.29,97.56,56,97.68,64.15c.28,20.43,24.8,20.94,38.87,15.1"/><path class="cls-23" d="M136.55,79.25C144.26,76,152.8,68.08,150,59.44,144.47,42.88,121.39,41.23,108.24,49,104.29,51.29,97.56,56,97.68,64.15c.28,20.43,24.8,20.94,38.87,15.1"/><path class="cls-24" d="M125.77,54.62a21.56,21.56,0,0,1-11.4,7.69c-3.19-.54-7.64-3.81-10.2-7.21l21.6-.48Z"/><path class="cls-25" d="M113.62,59.34a1.17,1.17,0,0,1,1.2-1.13,1.16,1.16,0,0,1,1.12,1.2c-.4,5.71-.78,12,.52,16.61,1.08,3.85,3.33,6.5,7.67,6.67-4.56.19-7.09-2.45-8.56-6.39-1.71-4.62-1.88-11.08-1.95-17Z"/><path class="cls-26" d="M110.81,47.62c-1,1-1.84,2.47-1,3.55s3,1.26,4.39,1.33c1.8.1,3.68-.27,5.45,0,2.32.34,4.46,1.37,6.75,1.84a11.87,11.87,0,0,0,4.12,0,16.34,16.34,0,0,0,3.09-.73c3.44-1.21,3.66-4.15,1.56-6.79A16.18,16.18,0,0,0,134,45.54,36.22,36.22,0,0,0,110.81,47.62Z"/><path class="cls-25" d="M126.15,54l-.06-.16a2.1,2.1,0,0,0-.34-.55,19,19,0,0,0-4.42-2.6,17.9,17.9,0,0,0-4.88-1.26,13.76,13.76,0,0,0-7.31,1.31,28,28,0,0,0-2.78,1.67,8.48,8.48,0,0,0-2.14,1.73,1.26,1.26,0,0,0-.41,1.09c.15.46.76.67,1.16.81a11.36,11.36,0,0,1,2.83,1.12,11.48,11.48,0,0,1,2.75,3.37,6.18,6.18,0,0,0,3.9,2.41,4.38,4.38,0,0,0,.5,0,4.89,4.89,0,0,0,4.24-3.39c.38-1.17.4-2.71,1.38-3.59a2.45,2.45,0,0,1,1.28-.57,9.38,9.38,0,0,1,1.05-.12c1.07-.1,3.84.44,3.25-1.31"/><path class="cls-27" d="M121.68,51.94A7.4,7.4,0,0,0,118,50.58a18.08,18.08,0,0,0-7.66.61,7.57,7.57,0,0,0-3.28,1.63,1.08,1.08,0,0,0,0,1.55c1,.75,2.6.46,3.76.35,1.89-.18,3.79-.59,5.69-.61a36.34,36.34,0,0,0,4.42.15,2.06,2.06,0,0,0,1.63-1.13c0-.48-.45-.85-.78-1.13l-.08-.06Z"/><path class="cls-28" d="M95.8,39.49c2.43-.75,5.25,1.39,6.31,4.79s0,6.76-2.48,7.52-5.25-1.39-6.3-4.79,0-6.76,2.47-7.52Z"/><path class="cls-29" d="M97.52,40.31a2,2,0,1,1-1,2.36,1.83,1.83,0,0,1,1-2.36Z"/><path class="cls-28" d="M153.78,36.91c2.52-.62,5.23,1.59,6.05,4.93s-.55,6.56-3.06,7.18-5.23-1.59-6.06-4.93.56-6.56,3.07-7.18Z"/><path class="cls-29" d="M155.41,38.07a2,2,0,1,1-.93,2.39,1.83,1.83,0,0,1,.93-2.39Z"/><path class="cls-30" d="M174.92,52.07c1.57,2.57-.67,6.8-5,9.44s-9.11,2.69-10.68.12.67-6.81,5-9.44,9.11-2.69,10.68-.12Z"/><path class="cls-30" d="M95.18,63.05c-1.31,2.51-4.91,3.22-8,1.59s-4.6-5-3.3-7.5,4.92-3.23,8-1.59,4.61,5,3.3,7.5Z"/><path class="cls-25" d="M90.25,36.31a20.53,20.53,0,0,1,2.43-1.62,11.45,11.45,0,0,1,1.12-.53,9.16,9.16,0,0,1,1.54-.48,5.18,5.18,0,0,1,1-.12,5.29,5.29,0,0,1,.79,0A16.4,16.4,0,0,1,99,34c.54.14,1,.28,1.54.47.83.28,1.48.55,2.28.86-1.33.45-2.41.92-3.76,1.35-.58.19-1.12.35-1.71.49-.24.05-.48.1-.73.13a7.86,7.86,0,0,1-1,0,14.57,14.57,0,0,1-1.48-.17c-.41,0-.75-.13-1.14-.21-1-.2-1.77-.43-2.78-.59Z"/><path class="cls-25" d="M148.06,31.89a30.24,30.24,0,0,1,2.79-1.56,10.66,10.66,0,0,1,1.26-.5,9.65,9.65,0,0,1,1.74-.44,5.91,5.91,0,0,1,1.19-.08,6.71,6.71,0,0,1,.89.09,13.55,13.55,0,0,1,2.06.53,14.54,14.54,0,0,1,1.69.68A18.45,18.45,0,0,1,162,32a29.47,29.47,0,0,0-4.27.61c-.37.07-.71.15-1.08.2-.54.08-1.06.18-1.6.22A9.55,9.55,0,0,1,154,33c-.56,0-1.08-.13-1.63-.21s-.83-.15-1.26-.23c-1.1-.23-2-.47-3.06-.67Z"/><path class="cls-31" d="M174.55,26.69c.31-3.25.76-7.54,7.22-13.61,4.45-4.18,11.43-5.92,16.74-3.86s5.24,7.31,3.23,11.13c-6.44,12.23-21,12.56-21,12.56s-4.58-4.4-6.24-6.22Z"/><path class="cls-32" d="M177,26.34c6.29-13.57,18.14-17.51,21.2-11.16,1.6,3.32-3.41,9.11-7.9,11.36a42.09,42.09,0,0,1-9.46,3.3L177,26.34Z"/><path class="cls-33" d="M28.19,120.6a8.51,8.51,0,0,0,5.32-.56c2.09-1.12,4.32-3.52,7-2.56,2.26.83,1.75,3.79,1.12,5.54a13.56,13.56,0,0,1-8.7,8.44L28.19,120.6"/><path class="cls-34" d="M2.84,110s.53-1.73,3.94-5.18c3.93-4,7.66-4.9,11.85-5.78a15.47,15.47,0,0,1,9.7,1c2.65,1.32,3.78,3.8,2.38,6.53-3.36,6.57-12.46,9.16-19.3,8.53C9.57,115,7.3,115,5.68,114c-1.22-.77-2.17-2.71-2.84-4"/><path class="cls-35" d="M36.86,107.11a4.19,4.19,0,1,1-4.19,4.31,4.26,4.26,0,0,1,4.19-4.31Z"/><path class="cls-4" d="M42.15,120.91A2.59,2.59,0,1,1,38,117.79c.6-.49,1.18-.81,1.45-1.41a4.32,4.32,0,0,0,.48-2.23,1.11,1.11,0,0,1,2.09-.74A7,7,0,0,1,43.11,117a8.17,8.17,0,0,1-1,3.92Z"/><path class="cls-4" d="M28.29,106.45a2.59,2.59,0,1,1-1.43-5,7.37,7.37,0,0,1,4.5.64,8.49,8.49,0,0,1,3.7,4.44,1.11,1.11,0,0,1-.35,1.53,1.12,1.12,0,0,1-1.53-.35,6.36,6.36,0,0,0-2.68-1.8,2.91,2.91,0,0,0-2.21.52Z"/><path class="cls-4" d="M20.1,109.71A2.59,2.59,0,0,1,23.76,106a10.66,10.66,0,0,1,1.59,3.62,11.09,11.09,0,0,1,.18,3.62,1.11,1.11,0,1,1-2.21.21A8.18,8.18,0,0,0,22,111.16a6.46,6.46,0,0,0-1.87-1.45Z"/><path class="cls-4" d="M14.18,111.7a2.59,2.59,0,1,1,4.77-2,15.94,15.94,0,0,1,.31,3.5,11.81,11.81,0,0,1-.55,3.42,1.1,1.1,0,0,1-1.2,1,1.11,1.11,0,0,1-1-1.2,9.29,9.29,0,0,0-.87-2.52,12.59,12.59,0,0,0-1.45-2.19Z"/><path class="cls-4" d="M8.34,112.08a2.59,2.59,0,1,1,5.14-.64c-.12.64-.24,1.18-.32,1.8-.12,1-.2,1.91-.32,2.92a1.11,1.11,0,0,1-2.18.42c-.48-.91-.92-1.67-1.42-2.6-.34-.64-.59-1.22-.9-1.9Z"/><path class="cls-36" d="M233.32,187.09c-13.94-16.6-32.86-8.33-34.29,10.87-1.25,16.85.16,28.59,3.45,39.39-6.58-.42-17.64,2.31-25.7,12.11-5.79,7-11.18,22.68-11.18,22.68,16.54-3.3,28.35-2.52,49,6.34,0,0,15.34-3.46,23.29-16.9,15.49-26.17,10.62-56.36-4.6-74.49Z"/></g></g></svg>