<svg xmlns="http://www.w3.org/2000/svg" xmlns:xlink="http://www.w3.org/1999/xlink" viewBox="0 0 266.37 231.56"><defs><style>.cls-1{isolation:isolate;}.cls-14,.cls-2,.cls-5{fill:#231f20;}.cls-2{opacity:0.1;}.cls-3{fill:#7d3924;}.cls-4{fill:url(#linear-gradient);}.cls-5,.cls-9{opacity:0.1;}.cls-6{fill:#f15a29;}.cls-7{fill:#ede7dc;}.cls-8{fill:url(#linear-gradient-2);}.cls-10,.cls-9{fill:#fff;mix-blend-mode:overlay;}.cls-10{opacity:0.2;}.cls-11{fill:url(#linear-gradient-3);}.cls-12{fill:#3f2721;}.cls-13{fill:url(#linear-gradient-4);}.cls-14{opacity:0.05;}.cls-15{fill:#2b2e33;}.cls-16{fill:url(#linear-gradient-5);}.cls-17{fill:url(#linear-gradient-6);}</style><linearGradient id="linear-gradient" x1="105.47" y1="152.35" x2="105.47" y2="226.67" gradientUnits="userSpaceOnUse"><stop offset="0" stop-color="#f15a29"/><stop offset="1" stop-color="#231f20"/></linearGradient><linearGradient id="linear-gradient-2" x1="148.41" y1="127.29" x2="192.5" y2="165.79" gradientUnits="userSpaceOnUse"><stop offset="0" stop-color="#f15a29"/><stop offset="1" stop-color="#9c3a1b"/></linearGradient><linearGradient id="linear-gradient-3" x1="151.47" y1="123.78" x2="195.56" y2="162.29" xlink:href="#linear-gradient-2"/><linearGradient id="linear-gradient-4" x1="177.75" y1="93.69" x2="221.84" y2="132.19" xlink:href="#linear-gradient-2"/><linearGradient id="linear-gradient-5" x1="124.93" y1="152.35" x2="124.93" y2="226.67" xlink:href="#linear-gradient"/><linearGradient id="linear-gradient-6" x1="193.05" y1="209.79" x2="149.11" y2="207.69" xlink:href="#linear-gradient"/></defs><title>Asset 17</title><g class="cls-1"><g id="Layer_2" data-name="Layer 2"><g id="Layer_1-2" data-name="Layer 1"><path class="cls-2" d="M42.89,206.17H266.37S163.3,263.29,42.89,206.17Z"/><path class="cls-3" d="M184.29,155.76c-10.89-16-30.61-26.26-49.86-23.94-5.22,22.26,3.34,52.19,17.55,72l.79,1-15.16.74-1.12,5.91h56.15C197.6,192.81,195.18,171.81,184.29,155.76Z"/><path class="cls-4" d="M89.15,127.65l29.75,81.09a5.43,5.43,0,0,0-2.44-.19c-2.43.31-4.67,2.22-4.4,3.09h9.73L113,131.42Z"/><path class="cls-5" d="M89.15,127.65l29.75,81.09a5.43,5.43,0,0,0-2.44-.19c-2.43.31-4.67,2.22-4.4,3.09h9.73L113,131.42Z"/><path class="cls-6" d="M264,123.08c-.58-21.49-11.82-41-26.1-56.42-11.22,7.92-27,9.42-40.34,5.61-2.55-1-5.21-1.79-7.58-2.92a55.55,55.55,0,0,0,1.44,23.22c2.62,9.17,7.43,17.52,11.27,26.25,13.75,31.29,10.86,60.54,5,92.89C245.67,201.19,265,159.86,264,123.08Z"/><path class="cls-7" d="M237.89,66.66q-2.23-2.4-4.54-4.67a41.35,41.35,0,0,1-10.56-16.62c-2-6-3.52-14.21-1.89-20.41-7.92,3-15.32,10.56-20.12,17.35a62.51,62.51,0,0,0-10.81,27c2.37,1.13,5,2,7.58,2.92C210.91,76.08,226.67,74.58,237.89,66.66Z"/><path class="cls-5" d="M234.25,138.38a116.79,116.79,0,0,1-35.71-88c.07-1.68.15-3.37.26-5.07A62.61,62.61,0,0,0,190,69.35a55.55,55.55,0,0,0,1.44,23.22c2.62,9.17,7.43,17.52,11.27,26.25,13.75,31.29,10.86,60.54,5,92.89,26.5-7.34,43.89-29.67,51.66-55A120.71,120.71,0,0,1,234.25,138.38Z"/><path class="cls-5" d="M242.56,173.29c-10.91-2.35-21.29-8.19-30.32-15.24,1.19,17.51-1.19,35.07-4.56,53.66,20-5.54,34.82-19.64,44.23-37.11A64.72,64.72,0,0,1,242.56,173.29Z"/><path class="cls-8" d="M213.17,151.79c-6-23.48-20.87-37.56-27.34-43.53-5.22-4.81-15.14-14-30.69-19.53-17.25-6.17-28.32-3.23-42.41-13.39A38.48,38.48,0,0,1,101,62.5a38.33,38.33,0,0,1-4.47-15.07c-.51-6.14,1-6.47,1.12-14.51a67.77,67.77,0,0,0-.26-7.31L78.13,24.55,40.74,24l-15.1.51a153.54,153.54,0,0,1-2.2,26.83,136.79,136.79,0,0,1-5,19.53L70.87,91l36.28,47.44c22.17,8.95,42.08,17.66,58.67,35.64a165,165,0,0,1,14.64,18.29c1.23,1.78,9.29,16.38,11,19.38h16.2a105,105,0,0,0,6-20.3A87.94,87.94,0,0,0,213.17,151.79Z"/><path class="cls-9" d="M74.8,53.37a41.3,41.3,0,0,0,4.09-5.86A51.32,51.32,0,0,0,85.42,25l-7.29-.4L40.74,24l-15.1.51a153.54,153.54,0,0,1-2.2,26.83c-.64,3.54-1.58,8-3,13.07l15,1.73C50.32,67.85,64.68,65.52,74.8,53.37Z"/><path class="cls-10" d="M67.94,54.79c2.37-7.78-10.31-9.4-14.71-9.47C46.36,45.21,32.62,45,27.09,50c-5,4.45-2.43,10.37,3.49,11.94,9.78,2.59,28.49,3,36-5A5.54,5.54,0,0,0,67.94,54.79Z"/><path class="cls-11" d="M25.11,2.79c.32,4.7.63,11.21.56,19l0,2.75L40.74,24Z"/><path class="cls-12" d="M25.11,2.79c.32,4.7.63,11.21.56,19l0,2.75L40.74,24Z"/><path class="cls-13" d="M95.43,14A87.87,87.87,0,0,0,91,0,49.06,49.06,0,0,0,78.13,24.55L97.4,25.61A84.16,84.16,0,0,0,95.43,14Z"/><path class="cls-12" d="M95.43,14A87.87,87.87,0,0,0,91,0,49.06,49.06,0,0,0,78.13,24.55L97.4,25.61A84.16,84.16,0,0,0,95.43,14Z"/><path class="cls-7" d="M0,67l48,1.11s37.74,1.64,50.23,12.28c-4.55,20-2.42,40.37,8.71,57.89L73.38,128.07,44.16,88.59S3.35,91.8,0,67Z"/><path class="cls-14" d="M213.17,151.79c-6-23.48-20.87-37.56-27.34-43.53a103,103,0,0,0-14.2-11.32,45.49,45.49,0,0,1-7.1,8.37c-11.22,11.23-25.8,16.2-41.33,17.12-27.15,1.62-51-15-65.31-36.75A38,38,0,0,1,55.2,80.8c-.39-.84-.78-1.71-1.17-2.56-16.62,1.44-33.55,1.44-49.92-1.47C15.26,90.86,44.16,88.59,44.16,88.59l29.22,39.48,33.55,10.18c-.16-.24-.3-.49-.46-.73l.68.88c22.17,8.95,42.08,17.66,58.67,35.64a165,165,0,0,1,14.64,18.29c1.23,1.78,9.29,16.38,11,19.38h16.2a105,105,0,0,0,6-20.3A87.94,87.94,0,0,0,213.17,151.79Z"/><path class="cls-14" d="M213.17,151.79a82.8,82.8,0,0,0-15.77-31.3A68.58,68.58,0,0,1,175,136.85a135.62,135.62,0,0,1-44.59,11.7c13,6.38,24.86,14.06,35.4,25.49a165,165,0,0,1,14.64,18.29c1.23,1.78,9.29,16.38,11,19.38h16.2a105,105,0,0,0,6-20.3A87.94,87.94,0,0,0,213.17,151.79Z"/><path class="cls-15" d="M8.56,67.16,0,67a19.75,19.75,0,0,0,3.42,8.89,12.83,12.83,0,0,0,4-4.67A12.84,12.84,0,0,0,8.56,67.16Z"/><path class="cls-16" d="M113,137.56l19.71,71.18a5.42,5.42,0,0,0-2.44-.19c-2.43.31-4.67,2.22-4.4,3.09h9.74l1.25-70.31Z"/><path class="cls-5" d="M113,137.56l19.71,71.18a5.42,5.42,0,0,0-2.44-.19c-2.43.31-4.67,2.22-4.4,3.09h9.74l1.25-70.31Z"/><path class="cls-6" d="M198.47,155.76c-10.89-16-30.61-26.26-49.86-23.94-6,25.37,6,60.72,23.83,79.73h34.38C211.78,192.81,209.36,171.81,198.47,155.76Z"/><path class="cls-5" d="M208.16,186.15q-4.75,2.13-9.58,4l-.1,0q-10.6,1.67-21.25,2.85h-.48A81,81,0,0,1,158.43,191a87.82,87.82,0,0,0,14,20.58h34.38A73.63,73.63,0,0,0,209,185.82Z"/><path class="cls-17" d="M150.67,211.55h47.44a71.72,71.72,0,0,0-32-6.61l-14.37.7Z"/><path class="cls-15" d="M29.85,57.4c.15-.49.31-1,.44-1.48.36-1.27.59-3.61,1.9-4.24,2.07-1,2.73,3.21,2.93,5.79l1.6.05a20.84,20.84,0,0,0-1.23-5.08C35,51.22,34.33,50,32.85,50a3.47,3.47,0,0,0-3,2.43,46.84,46.84,0,0,0-1.72,5Z"/><path class="cls-15" d="M52.83,57.4c.15-.49.31-1,.44-1.48.36-1.27.59-3.61,1.9-4.24,2.07-1,2.73,3.21,2.93,5.79l1.6.05a20.85,20.85,0,0,0-1.24-5.08C58,51.22,57.31,50,55.82,50a3.49,3.49,0,0,0-3,2.43,49.15,49.15,0,0,0-1.71,5Z"/><path class="cls-7" d="M89.42,8.84A49.28,49.28,0,0,0,82,24.77l10.63.58A67,67,0,0,0,89.42,8.84Z"/><path class="cls-5" d="M79.3,19.9a47.92,47.92,0,0,0-1.17,4.65L97.4,25.61a73.48,73.48,0,0,0-1.22-8.23A31.48,31.48,0,0,1,79.3,19.9Z"/></g></g></g></svg>