<svg xmlns="http://www.w3.org/2000/svg" xmlns:xlink="http://www.w3.org/1999/xlink" viewBox="0 0 153.21 156.24"><defs><style>.cls-1{isolation:isolate;}.cls-12,.cls-2,.cls-20,.cls-4,.cls-6{fill:#231f20;}.cls-2{opacity:0.1;}.cls-3{fill:#a73e1d;}.cls-22,.cls-4{opacity:0.1;}.cls-5{fill:url(#linear-gradient);}.cls-6{opacity:0.05;}.cls-7{fill:#db5428;}.cls-8{fill:#ef5929;}.cls-9{fill:#2b2e33;}.cls-10{fill:#ede7dc;}.cls-11{fill:url(#linear-gradient-2);}.cls-12,.cls-14{opacity:0.2;}.cls-13{fill:#f15a29;}.cls-14,.cls-22{fill:#fff;mix-blend-mode:overlay;}.cls-15{fill:#f7941e;}.cls-16{fill:#f7ba1e;}.cls-17{fill:#3c2415;}.cls-18{fill:#472b19;}.cls-19{fill:url(#linear-gradient-3);}.cls-21{fill:#a03c1c;}</style><linearGradient id="linear-gradient" x1="338.98" y1="85.82" x2="416.01" y2="85.82" gradientTransform="translate(-338.98)" gradientUnits="userSpaceOnUse"><stop offset="0" stop-color="#f15a29"/><stop offset="1" stop-color="#9c3a1b"/></linearGradient><linearGradient id="linear-gradient-2" x1="309.17" y1="32.85" x2="309.17" y2="140" gradientTransform="matrix(-1, 0, 0, 1, 406.94, 0)" xlink:href="#linear-gradient"/><linearGradient id="linear-gradient-3" x1="425.57" y1="144.06" x2="430.36" y2="158.42" gradientTransform="translate(-338.98)" gradientUnits="userSpaceOnUse"><stop offset="0" stop-color="#f15a29"/><stop offset="1" stop-color="#231f20"/></linearGradient></defs><title>Asset 11</title><g class="cls-1"><g id="Layer_2" data-name="Layer 2"><g id="Layer_1-2" data-name="Layer 1"><path class="cls-2" d="M.3,140.3H151.73S81.89,176.16.3,140.3Z"/><path class="cls-3" d="M104.86.09a74.15,74.15,0,0,0,3.62,10.47,27.43,27.43,0,0,0-5.79-2.08c1.13,2.11,2.25,4.23,3.37,6.34a10.57,10.57,0,0,0-4.49-.31,9.28,9.28,0,0,0,3.12,2.84c-.3-.16-1.59,7.32-1.63,8a17.16,17.16,0,0,0,.75,7.36,4.6,4.6,0,0,0,1.39,2,4.93,4.93,0,0,0,1.38.68c4.4,1.58,8.6,1.16,11.77-2.47,2.93-3.34,2.63-6.41,2-10.57C118.82,12.9,112.52,5.51,104.86.09Z"/><path class="cls-4" d="M104,19.86c-.44,2.19-.93,5.08-1,5.48a17.16,17.16,0,0,0,.75,7.36,4.6,4.6,0,0,0,1.39,2,4.93,4.93,0,0,0,1.38.68c4.4,1.58,8.6,1.16,11.77-2.47,2.93-3.34,2.63-6.41,2-10.57a26.63,26.63,0,0,0-1-4.12A33.16,33.16,0,0,1,104,19.86Z"/><path class="cls-5" d="M70.68,50.07C65.14,40.76,55.4,34.44,45,31.39s-21.46-3.09-32.25-2c7.38,7,6.45,19.19,2.35,28.5S4.35,75.35,1.49,85.11c-4.4,15,1.31,32,12.64,42.74s27.49,15.64,43.1,15l19.68-54.7C77.23,75.11,77.34,61.28,70.68,50.07Z"/><path class="cls-6" d="M70.68,50.07a36.69,36.69,0,0,0-2.23-3.3c-3.12,31.2-23,61.06-50.13,75.74a35.82,35.82,0,0,1-6.66,2.79c.79.88,1.61,1.74,2.47,2.55,11.32,10.77,27.49,15.64,43.1,15l19.68-54.7C77.23,75.11,77.34,61.28,70.68,50.07Z"/><path class="cls-7" d="M132,127.57c2.19-6.25,2.92-13.24.7-19.48-3.07-8.69-11.51-14.7-20.47-16.82-7-1.67-14.34-1.24-21.47.11a208.35,208.35,0,0,0-4.15,52.15l37.09,0C126.88,138.42,130,133.24,132,127.57Z"/><path class="cls-8" d="M80.92,0a87.5,87.5,0,0,0,7.6,10.27A31.68,31.68,0,0,0,81.44,10l5.91,5.82A12.12,12.12,0,0,0,82.29,17a10.76,10.76,0,0,0,4.42,2c-.38-.08.78,8.61,1,9.35.72,2.79,1.5,5.56,3.37,7.84A5.29,5.29,0,0,0,93.3,38a5.67,5.67,0,0,0,1.75.27c5.4.21,9.87-1.71,12.1-6.8,2.07-4.69.68-8-1.49-12.32C100.72,9.26,91.22,3.31,80.92,0Z"/><path class="cls-9" d="M137.26,28.18A18.83,18.83,0,0,1,145,35a37.73,37.73,0,0,1-6.6,6.51A31.22,31.22,0,0,1,137.26,28.18Z"/><polygon class="cls-10" points="129.67 43.89 132.06 53.27 134.34 52.39 134.34 50.52 135.38 51.99 137.25 51.27 137.45 40.5 129.67 43.89"/><path class="cls-11" d="M58.29,113.73A146.93,146.93,0,0,1,63.4,86.61,149.26,149.26,0,0,1,88,37.49C92.3,31.9,97.22,27.88,102.18,23c0,0,21.89-1.73,35.08,5.14a31.22,31.22,0,0,0,1.11,13.31,40.49,40.49,0,0,1-17.62,8.12V143.5l-63.29,0C56.54,143.53,58,116.56,58.29,113.73Z"/><path class="cls-10" d="M97.89,83.78A151.22,151.22,0,0,0,93,143.51h27.72V49.61C108.91,56.86,102,69.5,97.89,83.78Z"/><path class="cls-12" d="M120.75,81.19,87.45,77c-.39,9.84,7,18.9,16.2,22.45a35.2,35.2,0,0,0,17.1,1.77Z"/><path class="cls-6" d="M57.8,122.13a151.46,151.46,0,0,0-.34,21.4l63.29,0V120.79C101.27,131,76.33,133.65,57.8,122.13Z"/><path class="cls-13" d="M139.74,67.72c-8.83.49-18.7-1.26-23.94-7.47-4.66,4.66-4.71,12.1-.79,17.25s11.22,8,18.31,7.86c7.82-.14,15.45-3.72,19.89-9.32l-4.81-.88,4.68-3.48-5-.45a23.85,23.85,0,0,0,4.56-6.41A33.74,33.74,0,0,1,139.74,67.72Z"/><path class="cls-14" d="M131.2,35.56a8.55,8.55,0,0,0,0-2.81c-.76-4.65-5.43-7-9.6-7.86C112.52,23,97,29.69,103.21,41.37,108.59,51.53,129.53,46.14,131.2,35.56Z"/><path class="cls-8" d="M91.59,6c-5.85,12.18-5,23.92,1.46,35.8L109,23.6C106.22,14.87,99.42,10,91.59,6Z"/><path class="cls-15" d="M137.28,58.09c9.85,3.38,13.89,17.55,7.95,25.92-3.19,4.49-8.62,7-11.86,11.43-2.35-2.46-6.31-2-9.67-2.58a15.52,15.52,0,0,1-10.16-7.39C107.27,75,112.33,60,125,57.51A23.93,23.93,0,0,1,137.28,58.09Z"/><path class="cls-6" d="M110.86,75.34a19.24,19.24,0,0,0,2.68,10.13,15.52,15.52,0,0,0,10.16,7.39c3.36.62,7.32.12,9.67,2.58C136.61,91,142,88.5,145.23,84a14.73,14.73,0,0,0,2.24-4.92,28.85,28.85,0,0,1-3,1.92C133.34,86.88,118.52,85.28,110.86,75.34Z"/><path class="cls-16" d="M133.26,88.69a12.64,12.64,0,0,0,6.48-2.87c4-3.36,5.59-9.9,4.54-15.62a16.81,16.81,0,0,0-1.26-4,30.3,30.3,0,0,1-7.38,4.7A37.57,37.57,0,0,1,133.26,88.69Z"/><path class="cls-17" d="M109.7,69c5.91,3.68,12.15,3.78,19,2.4C137.8,69.58,145,59.63,145,59.63S119.72,44.65,109.7,69Z"/><path class="cls-18" d="M129.77,63.8c1.38,5.87,10.64,1.47,9.26-3C137.4,55.6,128.55,58.58,129.77,63.8Z"/><path class="cls-13" d="M117.26,74.37c-10,.49-21.1-1.26-27-7.47C85,71.57,84.93,79,89.36,84.16S102,92.14,110,92c8.82-.14,17.43-3.72,22.44-9.32L127,81.81l5.28-3.48-5.6-.45a24.23,24.23,0,0,0,5.15-6.4C127.45,73.39,122.32,74.12,117.26,74.37Z"/><path class="cls-6" d="M86.21,76.73a12.91,12.91,0,0,0,3.15,7.43C93.78,89.31,102,92.14,110,92c8.82-.14,17.43-3.72,22.44-9.32h0c-.77.27-1.55.51-2.35.72C115.4,86.19,98.28,85.93,86.21,76.73Z"/><path class="cls-17" d="M125.15,52.5c-.18-.14-.36-.28-.56-.42a.6.6,0,0,0-.37-.15.62.62,0,0,0-.39.25A10.66,10.66,0,0,0,121,60.56l7.63-1.5C128.11,56.38,127.27,54.21,125.15,52.5Z"/><path class="cls-7" d="M139.65,140.56a27.87,27.87,0,0,0-8.66-.21,13.71,13.71,0,0,0,6-3.7c-4.57.3-15.66,5.09-16.25,6.85,1.18,1.16,4.2,1.61,5.87,1.8a39.25,39.25,0,0,0,8.25-.18,13.18,13.18,0,0,0-4.42-1.86,40.27,40.27,0,0,0,5.24-1.22A31.26,31.26,0,0,0,139.65,140.56Z"/><path class="cls-19" d="M103.55,108.09C100.47,99.4,92,93.39,83.08,91.27c-7-1.67-14.34-1.24-21.47.11a207.88,207.88,0,0,0-4.15,52.15H84.35c2.27,4,4.86,8,8.8,10.35a45.78,45.78,0,0,0-3.41-8c2.35,2.23,4.84,4.54,8,5.35a15.69,15.69,0,0,0-2.93-5.38,16.76,16.76,0,0,0,7.86,2.27c-.48-1.4-4.38-4.74-8.09-4.57,3.19-5.09,6.31-10.27,8.29-15.94C105,121.32,105.76,114.33,103.55,108.09Z"/><path class="cls-6" d="M86.17,133.69c-9.4,1.65-20.7.63-28.88-4.39q-.16,7.13.17,14.23H84.35c2.27,4,4.86,8,8.8,10.35a45.78,45.78,0,0,0-3.41-8c2.35,2.23,4.84,4.54,8,5.35a15.69,15.69,0,0,0-2.93-5.38,16.76,16.76,0,0,0,7.86,2.27c-.48-1.4-4.38-4.74-8.09-4.57,3.19-5.09,6.31-10.27,8.29-15.94a38.42,38.42,0,0,0,1.31-4.64A33.91,33.91,0,0,1,86.17,133.69Z"/><path class="cls-20" d="M109.07,29a2.93,2.93,0,1,1,4.67,2.06,2.89,2.89,0,0,1-4.66-2S109.07,29.07,109.07,29Z"/><path class="cls-20" d="M119.45,29a2.93,2.93,0,1,1,4.67,2.06,2.89,2.89,0,0,1-4.66-2A.22.22,0,0,1,119.45,29Z"/><path class="cls-21" d="M92.93,11.85A19.38,19.38,0,0,0,91.06,22a43.81,43.81,0,0,0,2.22,10.22l12.21-8.19A24.39,24.39,0,0,0,92.93,11.85Z"/><path class="cls-22" d="M103.55,108.09C100.47,99.4,92,93.39,83.08,91.27A47.46,47.46,0,0,0,66,90.68,22.3,22.3,0,0,0,86.48,120a28.26,28.26,0,0,0,12.77-2.9,36.75,36.75,0,0,0,5.53-3.22A23.15,23.15,0,0,0,103.55,108.09Z"/></g></g></g></svg>