<svg xmlns="http://www.w3.org/2000/svg" viewBox="0 0 212.2 414.01"><defs><style>.cls-1{isolation:isolate;}.cls-2,.cls-8{fill:#231f20;}.cls-2{opacity:0.1;}.cls-3{fill:#41464f;}.cls-4{fill:#743618;}.cls-5{fill:#5e2c14;}.cls-6{fill:#6d2a07;}.cls-7{fill:#bf7249;}.cls-8,.cls-9{opacity:0.1;}.cls-9{fill:#fff;mix-blend-mode:overlay;}.cls-10{fill:#be1e2d;}.cls-11{fill:#414042;}.cls-12{fill:#c9784d;}</style></defs><title>Asset 19</title><g class="cls-1"><g id="Layer_2" data-name="Layer 2"><g id="Layer_1-2" data-name="Layer 1"><path class="cls-2" d="M6,396.53H175.41S97.3,435.87,6,396.53Z"/><path class="cls-3" d="M66.92,388l1.4,13.3h4.47L72.29,388A43.74,43.74,0,0,1,66.92,388Z"/><path class="cls-4" d="M104.59,284.66c-10.32-45.21-61.94-27.91-61.94-27.91-3.12,1.05,1.91,18.67,2.48,20.53a90.77,90.77,0,0,0,10.26,22.36c.41.64,12,15.31,12.93,13.76L60.37,326l6.55,62a43.74,43.74,0,0,0,5.37,0l-1.74-46.45S111.29,327.63,104.59,284.66Z"/><path class="cls-5" d="M203.06,0c-1.24,1,.18.38-1.18,1.19,4.38,9.29,6.61,20.93,5.08,30.79-5.53-.72-11.2-4.68-14.14-9.79-1.09,1.44.16,0-1.15,1.15a41.69,41.69,0,0,0,15.38,14.92A63.67,63.67,0,0,1,204,56.08a59,59,0,0,1-2.17,5.6c-2.05-6-5.38-10.25-9.54-15-1.28,1.14.08,0-1.31,1,3.75,4.58,5,9.93,5.28,16.84.19,6-1.81,9.89-6.08,14.15a54.88,54.88,0,0,1-4.48,4c-.56.45-4.08,2.47-4.13,3,.35-3.91-.74-11.79-1.84-15.62-1.69.73.34,0-1.48.69.81,4.49,1.52,11.21-3.14,18.6-1.78.86-3.62,1.65-5.51,2.34-2,.74-4.11,1.37-6.21,1.94.1-1.07.22-8.39.32-9.46a14.67,14.67,0,0,0-1.75.36c-.11,1.12-.39,6.51-4.26,10.39a82.16,82.16,0,0,1-16.87,1.42,13.53,13.53,0,0,1-7.24-7.48c-1.07,0-.84,0-1.61,0,.29,1.22,1.75,4.72,2.42,7.11a80,80,0,0,1-17.64-3.71c-6.11-5.16-7.15-12-7.7-16.86a7.37,7.37,0,0,0-1.53-.06c-.14,3.35.38,10.68,1.35,13.78A64.9,64.9,0,0,1,84.27,69.61a2.13,2.13,0,0,0,0-.61c-1.38-8.19-1.77-18.64,3.17-25.21-.73-.88-.68-.44-1.26-1.15A34.21,34.21,0,0,0,78.82,61a59.66,59.66,0,0,1-6.63-27.16c7.63-5,9.71-10,10.81-17.87-1.58-.11.11.07-1.42-.2C80.71,21,76.51,27.5,72,30.26c-.18-5.76-.14-12.66,1.7-17.14-.66-.31-1-.44-1.79-.86-1.83,5.41-8.08,26,1.49,48.89,10.25,24.5,31.44,34.25,37.94,37.12,5.15,2.27,27.68,11.52,53.15,2.93a72.93,72.93,0,0,0,26-15.62c1.51-1.4,10.69-9.82,16-21.66C215.74,43.48,213.13,19.57,203.06,0Z"/><path class="cls-6" d="M136.37,114.76l.24-3.18a2.6,2.6,0,0,0-.11-1.24,2.35,2.35,0,0,0-.94-1,15.6,15.6,0,0,0-17.14.07,21.7,21.7,0,0,0,16.5,6.72,1.62,1.62,0,0,0,1.12-.36A1.67,1.67,0,0,0,136.37,114.76Z"/><path class="cls-7" d="M162.57,101.9l-26.79,2.51c-3.07,24.83-27.9,37.39-27.9,37.39l1.4,3.76c5,19.26,44.08,2.93,44.08,2.93v50.74C30,204,10.8,256.75,10.8,256.75c-.82,11.85,3.29,22.73,7.7,31.76l11-1.48H145.27c37.67-29.3,45.2-65.71,45.2-65.71C193.4,158.12,162.57,101.9,162.57,101.9Z"/><path class="cls-8" d="M139.38,145.38a43.15,43.15,0,0,1-9.55.86c-7.49-.16-15.25-.71-21.92-4.46l0,0,1.4,3.76c5,19.26,44.08,2.93,44.08,2.93v50.3a6.53,6.53,0,0,0,3.87-1.76c1.45-1.39,1.9-2.76,2.77-4.59a49.52,49.52,0,0,0,4.27-13.91,48.7,48.7,0,0,0-1.44-21.5,36.15,36.15,0,0,0-4.52-9.44c-.51-.76-5.41-7.47-6.21-7A42.32,42.32,0,0,1,139.38,145.38Z"/><path class="cls-9" d="M158.25,117.42a5.62,5.62,0,0,0-.72-2c-2.31-3.82-12.15-3.26-16-3.19a53.33,53.33,0,0,0-7.72.68c-4.88,13.92-16.28,22.84-22.2,26.7,8.2.18,16.53-1.73,24.51-4,7.68-2.13,17.33-6,21.3-13.57A7.7,7.7,0,0,0,158.25,117.42Z"/><path class="cls-8" d="M168.85,259.09a64.35,64.35,0,0,1-12.39,7.13c-7.77,3.43-15.43,6.82-23.76,8.54A150.91,150.91,0,0,1,106.42,278a99.66,99.66,0,0,1-15.73-.88c-8.78-1.15-17.49-2.15-26-4.62a150.6,150.6,0,0,1-18.95-6.88,44.31,44.31,0,0,1-14.23,6.88l-11.8,1.58a34.74,34.74,0,0,1-7-.44,86.17,86.17,0,0,0,5.82,14.87l11-1.48H145.27a134.36,134.36,0,0,0,30.58-33.25C173.57,255.59,171.23,257.33,168.85,259.09Z"/><path class="cls-7" d="M97.25,277.4s4.81,75.82,10.69,109.8c1.68.08,3.35.14,5,.18l-3.7-110Z"/><path class="cls-3" d="M108.77,391.7a71.11,71.11,0,0,0,2.43,9.59h2.23l-.35-10-.14-3.93c-1.65,0-3.32-.1-5-.18C108.22,388.78,108.49,390.29,108.77,391.7Z"/><path class="cls-3" d="M130.31,390.33l-.39,11h2.24a78.67,78.67,0,0,0,2.72-11.15c.19-1,.37-2,.55-3-1.68,0-3.35.06-5,.1Z"/><path class="cls-7" d="M134.11,281.87l-3.69,105.36c1.66,0,3.33-.08,5-.1,5.87-34,10.68-105.26,10.68-105.26Z"/><path class="cls-8" d="M144.56,302.68c1-12.41,1.55-20.81,1.55-20.81h-12l-.59,16.81A58.83,58.83,0,0,1,144.56,302.68Z"/><path class="cls-3" d="M36.47,401.29h4.47l-.49-13c-1.75.16-3.51.36-5.29.57Z"/><path class="cls-7" d="M72.75,284.66C62.42,239.45,10.8,256.75,10.8,256.75c-.74,6.42,1.91,18.67,2.48,20.53a90.77,90.77,0,0,0,10.26,22.36c.41.64,12,15.31,12.93,13.76L28.52,326l6.64,62.94c1.78-.21,3.54-.41,5.29-.57L38.7,341.58S79.44,327.63,72.75,284.66Z"/><path class="cls-8" d="M73.17,292.41C61,306,39.39,308.41,24,299.41c-.3-.17-.6-.36-.9-.55l.48.78c.41.64,12,15.31,12.93,13.76L28.52,326l8,75.34h4.47L38.7,341.58s36-12.33,34.75-49.51C73.36,292.18,73.27,292.3,73.17,292.41Z"/><path class="cls-7" d="M6.88,244.89c-1.57-1-3.68-1.57-5.23-.55S-.15,247.25.05,249a10.17,10.17,0,0,0,9.57,8.66l2.63.22A12.41,12.41,0,0,0,6.88,244.89Z"/><path class="cls-10" d="M108.69,141.72c1.42-1.81,3.9-3.63,6.27-3.77-.39,3.58-2.54,6.56-4.71,9.33a.76.76,0,0,1-.42.33.8.8,0,0,1-.45-.12,21.74,21.74,0,0,1-7.69-6.43A6,6,0,0,1,108.69,141.72Z"/><path class="cls-6" d="M165.87,113.23l-1.9-2.56a2.56,2.56,0,0,1-.57-1.11,2.36,2.36,0,0,1,.28-1.31,15.6,15.6,0,0,1,14.52-9.1,21.67,21.67,0,0,1-10.35,14.49,1.6,1.6,0,0,1-1.14.3A1.62,1.62,0,0,1,165.87,113.23Z"/><path class="cls-11" d="M155,112c2.3,2.59-1.58,8.25-3.95,5.53a5.31,5.31,0,0,1-.83-4.26C150.89,110.34,153.6,110.4,155,112Z"/><path class="cls-11" d="M143.49,112c2.3,2.59-1.58,8.25-4,5.53a5.31,5.31,0,0,1-.83-4.26C139.38,110.34,142.09,110.4,143.49,112Z"/><path class="cls-8" d="M163.24,103.17c-.43-.83-.67-1.27-.67-1.27l-26.79,2.51c0,.39-.11.77-.17,1.16a20.64,20.64,0,0,0,2.09,1.21,23.18,23.18,0,0,0,21.24-.47A22.16,22.16,0,0,0,163.24,103.17Z"/><path class="cls-12" d="M146.14,199.58c-31.63,1.77-64.29,6.76-93.16,20.48-8.54,4.06-21,9.58-26,18-5.75,9.73-9,29.67,2.36,36.38A19.41,19.41,0,0,0,49,274c6.1-3.8,9-10.22,10-17.05,24.59,11.1,58.87-2.57,76-21.09,4.28-4.65,8-10,10-16A37.93,37.93,0,0,0,146.14,199.58Z"/><polygon class="cls-7" points="105.34 336.11 97.25 338.81 100.68 340.34 97.87 345.62 105.34 343.64 105.34 336.11"/><polygon class="cls-7" points="134.46 334.55 126.37 337.25 129.81 338.77 126.99 344.06 134.46 342.07 134.46 334.55"/><polygon class="cls-7" points="187.96 241.49 178.2 233.87 183.08 227.6 192.56 234.54 187.7 235.57 187.96 241.49"/></g></g></g></svg>