<svg xmlns="http://www.w3.org/2000/svg" xmlns:xlink="http://www.w3.org/1999/xlink" viewBox="0 0 250.64 257.08"><defs><style>.cls-1{fill:#ffa400;}.cls-2{fill:#231f20;}.cls-2,.cls-8{opacity:0.1;}.cls-3{fill:#998384;}.cls-4{fill:#806d6e;}.cls-5{fill:#ff9000;}.cls-6{fill:#453a3b;}.cls-7{fill:#3b3132;}.cls-8{fill:#080707;}.cls-9{fill:#4e4243;}.cls-10{fill:#594c4d;}.cls-11{fill:url(#linear-gradient);}.cls-12{fill:#00aeef;}</style><linearGradient id="linear-gradient" x1="18.83" y1="199.35" x2="56.1" y2="166.36" gradientUnits="userSpaceOnUse"><stop offset="0" stop-color="#ece6db"/><stop offset="1" stop-color="#fff"/></linearGradient></defs><title>Asset 3</title><g id="Layer_2" data-name="Layer 2"><g id="Layer_1-2" data-name="Layer 1"><path class="cls-1" d="M12.71,194.12c-.62.1-8.15,1.51-11.41,8.69a15.83,15.83,0,0,0,.27,13l13.58-8.42Q13.93,200.77,12.71,194.12Z"/><path class="cls-2" d="M.17,211.17a16.18,16.18,0,0,0,1.4,4.68l13.58-8.42L14,201.2C9.32,204.44,4.73,207.76.17,211.17Z"/><path class="cls-3" d="M78.91,148.56c5.77-17.18,4.74-30,2.44-38.76-1.2-4.64-13.85-31.64-13.85-31.64l9-55a43.78,43.78,0,0,1,4.88,28.08q7.74-16.6,15.49-33.22a78.3,78.3,0,0,1,1.22,19.38A78.89,78.89,0,0,1,95.21,54q8.55-17,17.11-34A45.35,45.35,0,0,1,114,33.87,47.83,47.83,0,0,1,104.58,60l13.85-17.4A31.86,31.86,0,0,1,117.61,56a32.4,32.4,0,0,1-6.92,12.65l9.37-5.54q-2.25,6.13-4.49,12.26c3.2,5.34,13.41,24,9,47.86a69,69,0,0,1-15.48,32Z"/><path class="cls-4" d="M78.5,145.64a38,38,0,0,0,29.13-10.93,66.93,66.93,0,0,0-18.54-6.52,61.54,61.54,0,0,0,26.4-17L89.91,112.3a54.73,54.73,0,0,0,25.34-18.17L88.08,98.86a51.25,51.25,0,0,0,21.18-20.37L86.45,86.43A68.87,68.87,0,0,0,99.26,62l-20,15.56A55.1,55.1,0,0,0,86.78,55L73.46,74a91.92,91.92,0,0,0-.73-33Q69.57,60,66.42,79.1a112.77,112.77,0,0,1,10.45,22.41,82.12,82.12,0,0,1,3.67,13.85A69.28,69.28,0,0,1,78.5,145.64Z"/><path class="cls-5" d="M95,236.56q-2.39,3.91-4.78,7.84L93,246.33l5.1-9.06Z"/><path class="cls-6" d="M103,202.13a104.58,104.58,0,0,1-3.26,19.15A103.63,103.63,0,0,1,94,237.17a17,17,0,0,0,9.64.27,17.17,17.17,0,0,0,9.51-6.79l-6-1.36A15.5,15.5,0,0,0,121,220.87l-6.52-.54a21.94,21.94,0,0,0,7.87-2.72,23.8,23.8,0,0,0,10.33-13Z"/><path class="cls-2" d="M103,202.13a104.58,104.58,0,0,1-3.26,19.15A103.63,103.63,0,0,1,94,237.17a17,17,0,0,0,9.64.27,17.17,17.17,0,0,0,9.51-6.79l-6-1.36A15.5,15.5,0,0,0,121,220.87l-6.52-.54a21.94,21.94,0,0,0,7.87-2.72,23.8,23.8,0,0,0,10.33-13Z"/><path class="cls-7" d="M156.54,194.64l9.78,31.78a98.36,98.36,0,0,0,84.32-42.78l-76.38-12.83Z"/><path class="cls-8" d="M175.46,187.87A69,69,0,0,1,187.4,173l-13.14-2.21-17.72,23.83,9.78,31.78c1.71.05,3.69.06,5.9,0C166.87,214.16,168.34,199.75,175.46,187.87Z"/><path class="cls-8" d="M214.49,215.55a141.19,141.19,0,0,1-23.67-11.79,85.87,85.87,0,0,1-13-10c-3.82-3.59-8.09-7.7-10.7-12.29-.36-.65.4-1.55,1-1,2,1.9,3.73,4.12,5.66,6.1s3.84,3.72,5.86,5.46a94.71,94.71,0,0,0,13.29,9.75c8.09,4.84,16.73,8.18,25.4,11.62C217.09,214.17,215.81,214.87,214.49,215.55Zm-36.87-5.12a94.13,94.13,0,0,1-8.35-14.21c-1.17-2.4-2.25-4.84-3.21-7.33-.62-1.58-1.11-3.21-1.66-4.82l-1.55,2.09A80.45,80.45,0,0,0,166.9,197a86.77,86.77,0,0,0,8,14.33,128.9,128.9,0,0,0,10.88,13.72c1.24-.21,2.51-.45,3.8-.72A124.05,124.05,0,0,1,177.62,210.43Zm64.72-16.32q-8.46-.53-16.83-1.89A170.4,170.4,0,0,1,188,181.48c-5.46-2.26-10.86-4.77-16.14-7.47l-1.28,1.73c20.68,12.56,44.88,19.47,69,21.31Q241,195.55,242.34,194.11Z"/><path class="cls-9" d="M56.91,139.39c-7.36,37.32,18.1,72,51.33,76.59,28.51,3.94,58.14-14.91,67.63-45.62Z"/><path class="cls-1" d="M91,245.08a6.38,6.38,0,1,0-9.9-7.91l7.28,1.23C89.28,240.62,90.16,242.85,91,245.08Z"/><path class="cls-1" d="M92.46,245.55a7.32,7.32,0,0,0-7.82-3c-3.51,1.07-5.81,5.48-4.29,9.79L85,245.51Z"/><path class="cls-1" d="M91,244.65,94.9,250l-2,7.06a6.59,6.59,0,0,0,4.76-7.88A6.52,6.52,0,0,0,91,244.65Z"/><path class="cls-1" d="M90.62,245.48c2.44-3.79,7.16-4.21,9.34-2.21,1.68,1.55,2,4.72.48,7.46l-3.12-5.28Z"/><path class="cls-5" d="M132.13,232.72l-5.34,7.48,2.6,2.12,5.73-8.67Z"/><path class="cls-1" d="M127.55,240.93a6.38,6.38,0,1,0-9.3-8.6l7.17,1.75Z"/><path class="cls-1" d="M128.94,241.51a7.32,7.32,0,0,0-7.57-3.54c-3.59.82-6.19,5.05-5,9.46l5.15-6.49Z"/><path class="cls-1" d="M127.59,240.51l3.47,5.63L128.52,253a6.29,6.29,0,0,0-.93-12.52Z"/><path class="cls-1" d="M127.12,241.31c2.71-3.61,7.44-3.7,9.47-1.54,1.56,1.67,1.69,4.86-.05,7.47l-2.73-5.49Z"/><path class="cls-10" d="M56.81,139.39C56,142.54,48.46,172.81,68.59,197c13,15.6,30.11,19.77,35.85,20.91l-7.2-19.42,14.67-4.07-7.33-13.85,15.07-2-9.37-14.66,19.55-9Z"/><path class="cls-2" d="M63.32,189.52A57.34,57.34,0,0,0,68.59,197c13,15.6,30.11,19.77,35.85,20.91l-1-2.79c1.6.37,3.21.67,4.84.89C130,219,152.41,208.72,166,190a104.73,104.73,0,0,1-102.7-.52Z"/><path class="cls-11" d="M57.93,138.17,7.82,182.58l7.33,24.85L84.82,167.5l-20-2.85q4.68-7.53,9.37-15.07l-16.3.81Z"/><path class="cls-2" d="M13.3,201.16l1.85,6.27L84.82,167.5l-13.59-1.94C52,177.67,32.57,189.27,13.3,201.16Z"/><path class="cls-12" d="M16.58,182.78a2.37,2.37,0,0,0,2,4.28,2.4,2.4,0,1,0-2-4.28Z"/><path class="cls-12" d="M26.76,175.65a2.38,2.38,0,0,0,2,4.28,2.4,2.4,0,1,0-2-4.28Z"/><path class="cls-10" d="M92,155l33.4-33.55,9.06-57.82L234.8,0a67.19,67.19,0,0,1-8.53,15.09,69.65,69.65,0,0,1-27.56,21.66l45.93-21A153.86,153.86,0,0,1,222.33,40,154.81,154.81,0,0,1,202,55.12l35.44-14.44A96.75,96.75,0,0,1,223,55.77a96.66,96.66,0,0,1-21.65,13.78l28-7a94.36,94.36,0,0,1-12.47,10.93A94.86,94.86,0,0,1,193,86.12l12-.44A42,42,0,0,1,186.43,97c.15,1.63,2.74,36.22-24.93,56.25C141.4,167.83,113.79,168.58,92,155Z"/><path class="cls-6" d="M142.5,83.78C160,73.94,177.82,63.35,189.45,47L145.11,68.3a118.9,118.9,0,0,0,25-19.55A119.29,119.29,0,0,0,187,27L133,62l-9.51,60-33.4,33.68a43,43,0,0,0,40.64,6.61L112.6,148.43A80.79,80.79,0,0,0,153.81,145l-33.73-11.78a102.7,102.7,0,0,0,46.49-9.86,178.29,178.29,0,0,1-36.38-4.66,83.34,83.34,0,0,0,45-14.15A166.84,166.84,0,0,1,138,102a91.91,91.91,0,0,0,46.4-20.81A119.14,119.14,0,0,1,142.5,83.78Z"/><path class="cls-6" d="M141.65,185.84c-8.84.83-13.36,9.81-14.87,12.83-7.9,15.71,2.66,33.58,4,35.78a27.91,27.91,0,0,0,13.86-6,27.3,27.3,0,0,0,5.77-6.59l-8.15-1a18.36,18.36,0,0,0,12.83-13.24l-6.31.82a17.3,17.3,0,0,0,7.33-16.3C155.14,191.11,149.38,185.11,141.65,185.84Z"/><path class="cls-2" d="M124,214.45a49.73,49.73,0,0,0,6.77,20,27.91,27.91,0,0,0,13.86-6,27.3,27.3,0,0,0,5.77-6.59l-8.15-1a18.58,18.58,0,0,0,8.76-5.5,18.32,18.32,0,0,0,2.44-3.51,24.53,24.53,0,0,1-9,3.72C137.66,216.82,130.1,217.35,124,214.45Z"/></g></g></svg>