<svg xmlns="http://www.w3.org/2000/svg" viewBox="0 0 353.68 284.28"><defs><style>.cls-1{isolation:isolate;}.cls-14,.cls-15,.cls-2,.cls-5,.cls-6,.cls-8{fill:#231f20;}.cls-2{opacity:0.1;}.cls-3{fill:#292121;}.cls-4{fill:#514142;}.cls-11,.cls-5{opacity:0.05;}.cls-6{opacity:0.2;}.cls-7{fill:#ede7dc;}.cls-8{opacity:0.1;}.cls-9{fill:#524648;}.cls-10{fill:#96817c;}.cls-11,.cls-12{fill:#fff;}.cls-11{mix-blend-mode:overlay;}.cls-13{fill:#414042;}.cls-15{opacity:0.4;}</style></defs><title>Asset 16</title><g class="cls-1"><g id="Layer_2" data-name="Layer 2"><g id="Layer_1-2" data-name="Layer 1"><path class="cls-2" d="M25.35,260.07H328.51S188.7,314.53,25.35,260.07Z"/><path class="cls-3" d="M254.42,231.51s-10.89,31-15.07,34.74H210.47s4.19-6.14,15.35-3.07c0,0-12.84-20.65-12.28-33.76Z"/><path class="cls-4" d="M341.31,69.54C254.42,15.2,151.88,46.93,151.88,46.93L63.56,167.71C60.24,206,88.82,264,88.82,264c-11.72-4.47-23.19,2.23-23.19,2.23H99.52c4.84,0,5.93-29.08,5.93-29.08h23.19a78.6,78.6,0,0,0,11.24,25.45c-18.14-.28-22.88,3.63-22.88,3.63h38.78l6.7-30.13H264.25a101.42,101.42,0,0,0,4.62,28.74,12.82,12.82,0,0,0-13.62,1.39h27.23C350.31,185.89,341.31,69.54,341.31,69.54Z"/><path class="cls-5" d="M310.79,135.12c-23.57,8.55-48.48,11.77-73.25,14.72a440.53,440.53,0,0,1-63.73,2.8c-5.39-.15-10.75-.52-16.1-1.2-11.27-1.43-23.13-2.34-34.1-5.76-8.25-2.58-16.16-6.36-24-9.79a68.3,68.3,0,0,1-7.31-3.66c-.64-.37-1.27-.76-1.89-1.16l-26.8,36.64C60.24,206,88.82,264,88.82,264c-11.72-4.47-23.19,2.23-23.19,2.23H99.52c4.84,0,5.93-29.08,5.93-29.08h23.19a78.6,78.6,0,0,0,11.24,25.45c-18.14-.28-22.88,3.63-22.88,3.63h38.78l6.7-30.13H264.25a101.42,101.42,0,0,0,4.62,28.74,12.82,12.82,0,0,0-13.62,1.39h27.23c38.2-45.25,52-101.92,56.82-142.8C330,127.81,320.42,131.62,310.79,135.12Z"/><path class="cls-5" d="M330.85,164.57a228.25,228.25,0,0,1-24,3.15c-10,.7-20.5-1.52-30.2-3a56.8,56.8,0,0,1-11-2.75c-8.76-3.22-18.72-6.76-26.88-12A187.65,187.65,0,0,1,220,135.7a41,41,0,0,1-3.55-3.3A155.45,155.45,0,0,1,202,113.74a31,31,0,0,1-2.28-4.06c-8.11-16.75-11.33-26.83-12.23-45.7a89.05,89.05,0,0,1,2.45-24.34c-23.17,2.7-38,7.29-38,7.29L63.56,167.71C60.24,206,88.82,264,88.82,264c-11.72-4.47-23.19,2.23-23.19,2.23H99.52c4.84,0,5.93-29.08,5.93-29.08h23.19a78.6,78.6,0,0,0,11.24,25.45c-18.14-.28-22.88,3.63-22.88,3.63h38.78l6.7-30.13H264.25a101.42,101.42,0,0,0,4.62,28.74,12.82,12.82,0,0,0-13.62,1.39h27.23c26.58-31.49,41.36-68.52,49.51-101.9Z"/><path class="cls-6" d="M330.86,167.12a192.88,192.88,0,0,1-25.74,20.07,122.57,122.57,0,0,1-15.45,8.67A376.34,376.34,0,0,1,253,211.08a152.77,152.77,0,0,1-19.11,5.51,246.87,246.87,0,0,1-37.71,5c-19.54,1.06-39-2.42-58.28-5.31-12.44-1.87-24.83-4.1-37-7.13a260.81,260.81,0,0,1-35-11.61c6.45,32.9,23,66.44,23,66.44-11.72-4.47-23.19,2.23-23.19,2.23H99.52c4.84,0,5.93-29.08,5.93-29.08h23.19a78.6,78.6,0,0,0,11.24,25.45c-18.14-.28-22.88,3.63-22.88,3.63h38.78l6.7-30.13H264.25a101.42,101.42,0,0,0,4.62,28.74,12.82,12.82,0,0,0-13.62,1.39h27.23c26-30.81,40.71-66.91,49-99.72Z"/><path class="cls-7" d="M168.46,95.57c-3.8-10.95-10.58-20.25-21.16-26.34-12-6.88-26.4-8.71-40.05-6.79C80,66.27,51.62,87.4,43.61,114.53c-4.19,14.2.29,32.94,4.33,47,1.26,4.4,9.35,23.72,20.93,42.78l3.76-5.45a151,151,0,0,0,39.53,41.85c11.91-13.43,26-39.59,29.49-52.85l7.54,4.18C166.64,169.21,179,126,168.46,95.57Z"/><path class="cls-8" d="M108.81,212.26c11.92-13.43,25.95-39.59,29.49-52.85l7.54,4.17c12-15.67,21.57-40.94,23-65.09-3.88-10.4-10.52-19.22-20.7-25.07-11.95-6.88-26.39-8.71-40-6.79-27.25,3.83-55.62,25-63.63,52.09a40.76,40.76,0,0,0-1.5,8.4q.81,3.09,1.64,6c1.26,4.4,9.35,23.72,20.94,42.78l3.75-5.45A151.1,151.1,0,0,0,108.81,212.26Z"/><path class="cls-8" d="M103.79,178.22c11.91-13.43,26-39.6,29.49-52.85l7.53,4.17c12-15.67,21.58-40.94,23-65.09-3.88-10.4-10.53-19.22-20.7-25.07-12-6.88-26.39-8.71-40.05-6.79-27.25,3.83-55.63,25-63.63,52.08a41,41,0,0,0-1.5,8.41q.81,3.09,1.64,6c1.26,4.4,9.35,23.72,20.93,42.78l3.76-5.45A151,151,0,0,0,103.79,178.22Z"/><path class="cls-9" d="M8.18,22.71s5.44,119.26,73,139.15l1,7.24S187.34,140,180.37,17.2C180.37,17.2,91-1.69,8.18,22.71Z"/><polygon class="cls-9" points="27.88 89.92 19.45 98.69 19.89 92.88 15.35 91.66 23.83 85.95 27.88 89.92"/><path class="cls-9" d="M166.31,1.51c5.79-3,13.39-1.39,18,3.24a15.64,15.64,0,0,1,4.6,10.7A13.37,13.37,0,0,1,184,25.92c-2.17,1.72-4.91,2.71-6.79,4.74L159.89,18.08C157.37,12.08,160.52,4.49,166.31,1.51Z"/><path class="cls-9" d="M17.88,9.09C11.46,8,4.71,11.85,1.76,17.66A15.63,15.63,0,0,0,.64,29.25a13.37,13.37,0,0,0,7.81,8.49c2.59,1,5.5,1.09,7.91,2.45l12.7-17.28C29.62,16.43,24.31,10.16,17.88,9.09Z"/><path class="cls-6" d="M53.94,52.85c.27-.12,3.61,5.75,4.06,6.44A27.23,27.23,0,0,0,88.09,70.46c10.47-3,18.7-12,21.86-22.41A87,87,0,0,0,53.94,52.85Z"/><path class="cls-10" d="M96.48,68.5a154.16,154.16,0,0,0-13-20.1c.2.27-14,21.53-15.2,23.77A181.59,181.59,0,0,0,49.6,126.53c-.74,4.28-1.46,8.7-2,13.14,9,10.22,20,18.2,33.59,22.19l1,7.24s15.15-4.21,33.57-16.13a205.58,205.58,0,0,0-4.22-43.13A155.72,155.72,0,0,0,96.48,68.5Z"/><path class="cls-11" d="M167.79,15C142.55,11.21,83,4.94,23.72,18.63A75.85,75.85,0,0,0,28.5,69.18c4.09,8.57,10,16.49,18,21.66,12.75,8.26,29.07,8.55,44.13,6.57,17.2-2.26,34.51-7.35,48.08-18.14C157.77,64.07,166.52,39.83,167.79,15Z"/><path class="cls-5" d="M163,94.25a100.12,100.12,0,0,1-17.33,11.28c-9.85,4.79-20.28,9.55-31,12.35-11,2.86-22.48,4.15-33.71,4.94a82.28,82.28,0,0,1-15.69-.45c-10.86-1.31-22.48-2.27-33.13-5.58,10.82,20.68,26.45,38.42,49,45.07l1,7.24s61-16.93,87-79.3Q166.16,92.13,163,94.25Z"/><path class="cls-12" d="M66.82,48.5c.87,2.13,2.1,4.37,3.67,5,2.49,1,3.87-.86,4.74-2.88.15-.34.57-2.28.93-4A87,87,0,0,0,66.82,48.5Z"/><path class="cls-12" d="M90.81,45.57C91.9,50.5,94.15,57,98,52.88a15.51,15.51,0,0,0,3.53-6.46A85.57,85.57,0,0,0,90.81,45.57Z"/><path class="cls-4" d="M349.42,64a3.72,3.72,0,0,1,3.29,3c.2,2.23-2.25,3.72-4.42,4.25,2.62-.48,4.93,2.15,5.32,4.78a4,4,0,0,1-.29,2.48c-2.52,4.7-11.92,2-15.1-.37a12.56,12.56,0,0,1-5-10.06A10.16,10.16,0,0,1,338,59.15c4-2.36,11.14.36,7,5.45A10.39,10.39,0,0,1,349.42,64Z"/><path class="cls-5" d="M148.5,121.62A84.87,84.87,0,0,1,138.23,127c-8.76,3.86-17.76,8.25-27.11,10.79S91.59,141.31,82,142.18a51.29,51.29,0,0,1-10-.07c-8.33-.88-17.4-1.4-25.65-3.87,9.22,10.9,20.65,19.45,34.82,23.62l1,7.24s41.21-11.43,70.31-50.1C151.2,119.9,149.86,120.78,148.5,121.62Z"/><path class="cls-13" d="M74.54,132.7s6.38,31.68,7.68,36.4c-.26-.94.41-2.85.49-3.85a46.56,46.56,0,0,0,.19-4.72c-.08-10.11-3-20.42-5.23-30.24Z"/><path class="cls-14" d="M58.32,116.47s10.83,13.78,16.22,16.23c0,0,17.72-7.11,24-18.31Z"/><path class="cls-15" d="M166.61,9.34,180.42,22.1s7.11-10.25-1.26-15.69S166.61,9.34,166.61,9.34Z"/><path class="cls-15" d="M6.94,31.52l13-16.74s-9.63-2.1-13,4.6A13,13,0,0,0,6.94,31.52Z"/><polygon class="cls-4" points="239.75 44.13 237.89 32.11 242.24 35.99 245.96 33.11 245.37 43.32 239.75 44.13"/><polygon class="cls-4" points="336.89 97.43 349 98.55 344.18 101.83 346.06 106.14 336.31 103.07 336.89 97.43"/></g></g></g></svg>