<svg xmlns="http://www.w3.org/2000/svg" viewBox="0 0 114.8 146.56"><defs><style>.cls-1,.cls-4,.cls-5,.cls-7{fill:#231f20;}.cls-1{opacity:0.1;}.cls-2{fill:#2e2f3d;}.cls-3{fill:#8b8b96;}.cls-4{opacity:0.2;}.cls-5{opacity:0.1;}.cls-6{fill:#9e9eab;}.cls-8{fill:#be1e2d;}</style></defs><title>Asset 12</title><g id="Layer_2" data-name="Layer 2"><g id="Layer_1-2" data-name="Layer 1"><path class="cls-1" d="M114.8,129.07H0S52.94,168.42,114.8,129.07Z"/><path class="cls-2" d="M113.17,108.73c-6.71-4.27-13-8-18.81-12.65a125.79,125.79,0,0,0,16-5.43A157.63,157.63,0,0,1,90.16,77.37,60.16,60.16,0,0,0,108.61,68Q98,65.34,87.51,62.18a78.49,78.49,0,0,0,17.17-11.83,75.16,75.16,0,0,0-21.92-3.44c7.12-2.6,13.9-8.49,18.18-14.12-8.22.22-16.56.9-25,1.47A50.33,50.33,0,0,0,87.5,14.43L70,20.62a114.82,114.82,0,0,0-.09-18.17A136.05,136.05,0,0,0,56.74,17,49.06,49.06,0,0,0,49.91,0a62,62,0,0,0-9,17.1A68,68,0,0,0,31.93,4a49.77,49.77,0,0,0-3.59,16.21L18.54,7.93C16.46,37.59,34.88,57.4,56,72.17l-6,58.38H97.67a18,18,0,0,1-2.83-4.2,45.48,45.48,0,0,0,13.7-3.94,58,58,0,0,1-15.11-10.76A55,55,0,0,0,113.17,108.73Z"/><path class="cls-3" d="M18.34,96.33l.31,23.06H7.21l6.49,5.81-5.81,5.3H28C28.29,127.53,30.29,105.5,18.34,96.33Z"/><path class="cls-3" d="M22.13,61.14a21.77,21.77,0,0,1,1.48,8.53A23.06,23.06,0,0,1,21.5,78.8c-1.25,2.69-3.17,4.84-4.85,7.23-.41.59-3.35,3.83-3.2,4.58l-1.69-8.13H4Z"/><path class="cls-4" d="M23,59.89a21.93,21.93,0,0,1,1.49,8.53,23.23,23.23,0,0,1-2.11,9.12c-1.25,2.69-3.17,4.84-4.85,7.23-.41.59-3.36,3.84-3.2,4.58l-1.7-8.13H4.8Z"/><path class="cls-3" d="M1.18,37.65c6.18,4.26,16.39,7.21,16.39,7.21l1.23,85.69H62.09V24.86C21.59,18.2,1.18,37.65,1.18,37.65Z"/><path class="cls-5" d="M43.66,115.93c-9,3-18.18,1.8-25.12-3l.26,17.64H62.09V104.12A44.17,44.17,0,0,1,43.66,115.93Z"/><path class="cls-6" d="M15.43,29.17A22.7,22.7,0,0,0,27.85,39.39c13.42,3,24.27-4.26,29.77-15.16C38.92,21.94,24.85,25.26,15.43,29.17Z"/><path class="cls-7" d="M30,32.56c1.35-3.43-2.26-6.77-5.3-4.55-2.75,2-1.39,7.44,2.35,7A3.79,3.79,0,0,0,30,32.56Z"/><path class="cls-7" d="M44,33.47c2.32-2.87-.1-7.14-3.67-5.93-3.23,1.1-3.58,6.69.11,7.38A3.84,3.84,0,0,0,44,33.47Z"/><path class="cls-6" d="M50.48,73.36,62.09,58.82a25.55,25.55,0,0,1,1.68,9.61,26.19,26.19,0,0,1-2.06,9.77c-1.29,3-3.42,5.6-5.29,8.28-.37.53-3,3.44-2.87,4.1L51.76,82H43.5Z"/><path class="cls-7" d="M12.2,43.05A41.81,41.81,0,0,0,11.43,31,45,45,0,0,0,1.18,37.65,54.25,54.25,0,0,0,12.2,43.05Z"/><path class="cls-8" d="M42,40.14l-15.18.49s2.51,5.49,7.77,5.49S42,40.14,42,40.14Z"/><path class="cls-6" d="M61.93,96.4l.12,23.06H53l6.49,5.8-5.81,5.3H71.56C71.89,127.59,73.89,105.56,61.93,96.4Z"/></g></g></svg>