<svg xmlns="http://www.w3.org/2000/svg" viewBox="0 0 185.26 165.19"><defs><style>.cls-1{isolation:isolate;}.cls-2,.cls-5,.cls-7,.cls-8,.cls-9{fill:#231f20;}.cls-2{opacity:0.1;}.cls-3{fill:#414042;}.cls-4{fill:#fff;mix-blend-mode:overlay;}.cls-4,.cls-7{opacity:0.1;}.cls-5{opacity:0.5;}.cls-6{fill:#754c29;}.cls-8{opacity:0.4;}.cls-10{fill:#ecc4dc;}.cls-11{fill:#996336;}</style></defs><title>Asset 14</title><g class="cls-1"><g id="Layer_2" data-name="Layer 2"><g id="Layer_1-2" data-name="Layer 1"><path class="cls-2" d="M0,147.71H185.26S99.82,187.05,0,147.71Z"/><path class="cls-3" d="M132.85,61.69c-4-15.71-7.67-34-21.71-44-.55-.39-1.09-.76-1.63-1.11,2.1-2.47,4.25-4.91,6.47-7.27q-6.27,1-12.46,2.45A48.16,48.16,0,0,0,107,4,59.29,59.29,0,0,0,96.73,10.4L101.59,0C91.49,4.62,80.67,10.08,72.78,17.2c-10.46,8.25-17.7,22.9-20,37.18-3.72,23.15-1.54,49.77,3.29,72.49l85.81-2.29C140.57,103.3,138.05,82.31,132.85,61.69Z"/><path class="cls-4" d="M111.14,17.67c-.55-.39-1.09-.76-1.63-1.11,2.1-2.47,4.25-4.91,6.47-7.27q-6.27,1-12.46,2.45A48.16,48.16,0,0,0,107,4,59.29,59.29,0,0,0,96.73,10.4L101.59,0C91.49,4.62,80.67,10.08,72.78,17.2a39.26,39.26,0,0,0-4.41,4.08c5.64,9.91,20.7,13.24,32.05,11.23a41.58,41.58,0,0,0,17.79-8.15A35.46,35.46,0,0,0,111.14,17.67Z"/><polygon class="cls-5" points="116.24 39.01 70.23 39.01 73.45 114.01 122.69 113.55 116.24 39.01"/><polygon class="cls-3" points="70.23 39.01 95.54 63.4 116.24 39.01 94.28 35.86 70.23 39.01"/><path class="cls-5" d="M72.39,89.28,73.45,114l49.24-.46-2-23.1C105,95.93,87.56,96,72.39,89.28Z"/><polygon class="cls-6" points="24.37 148.52 23.14 144.53 34.49 144.23 32.04 136.25 42.16 131.65 38.48 118.46 56.89 106.81 85.11 104.35 89.71 109.57 93.39 99.14 113.94 98.52 116.7 106.5 152.29 111.71 154.13 125.52 161.18 128.89 161.18 137.79 169.46 140.55 167.62 148.52 24.37 148.52"/><path class="cls-7" d="M38.48,118.46l3.68,13.19L32,136.25l2.45,8-11.34.31,1.22,4H54.15a276.83,276.83,0,0,1-9.49-34Z"/><path class="cls-7" d="M169.46,140.55l-8.28-2.76v-8.9l-7.05-3.37-1.84-13.81-3.42-.5q-1.69,18.66-4.36,37.31h23.11Z"/><path class="cls-7" d="M161.18,137.79v-8.9l-7.05-3.37-4.33-.93.84,15.07s-29.3-.84-24.27-17.58c-10.05-.84-30.14-1.67-30.14-1.67L97.91,133s-26.79,5-26.79-10c-10.12,1.35-29,8.73-29,8.73L32,136.25l2.45,8-11.34.31,1.22,4H167.62l1.84-8Z"/><path class="cls-8" d="M67.77,95.15,55.21,64.74c-1.57,4.52-.45,5.75-1,10.47a139.5,139.5,0,0,0-.92,15.43c-.07,14.51,1.9,29.24,7.09,42.84l2.11-7.5,4.87,7.5,3-6.35L77,133.38Z"/><path class="cls-9" d="M65.5,36.31c1.58.71,3.63.36,4-2,.53-3.14-2.81-5.3-5-2.73C62.72,33.65,63.86,35.56,65.5,36.31Z"/><path class="cls-9" d="M116.8,36.31c1.58.71,3.63.36,4-2,.53-3.14-2.82-5.3-5-2.73C114,33.65,115.16,35.56,116.8,36.31Z"/><path class="cls-10" d="M95.54,63.4l5-5.91c-3.66.11-7.31.2-11,.19Z"/><polygon class="cls-11" points="58.5 150.82 57.35 145.3 61.72 143.69 62.41 139.32 70.92 137.94 72.07 142.31 81.04 142.77 82.65 150.82 58.5 150.82"/><path class="cls-7" d="M57.44,145.76l1.06,5.06H82.65l-1.12-5.61C74.39,148.46,65.09,148.22,57.44,145.76Z"/><polygon class="cls-11" points="112.56 150.36 110.95 139.09 125.91 136.79 126.37 133.8 138.1 134.49 138.79 140.93 146.38 143.69 147.3 149.44 139.02 150.13 138.56 153.12 129.36 152.89 128.67 150.36 112.56 150.36"/><path class="cls-7" d="M111.44,142.52l1.12,7.84h16.11l.69,2.53,9.2.23.46-3,8.28-.69-.92-5.75-1.21-.44C135.59,148.8,121.61,147.19,111.44,142.52Z"/><polygon class="cls-6" points="99.68 155.19 99.22 151.05 93.24 152.66 93.24 155.88 99.68 155.19"/><polygon class="cls-6" points="153.97 150.82 151.21 150.52 150.75 153.58 154.89 153.58 153.97 150.82"/><polygon class="cls-6" points="47.34 151.17 49.64 151.17 50.56 153.81 46.88 153.81 47.34 151.17"/><path class="cls-3" d="M68.39,94.69,52.76,56.6c-1.58,4.52-1.77,9.29-2.31,14A139.65,139.65,0,0,0,49.52,86c-.07,14.52,1.9,29.25,7.09,42.85l2.12-7.5,4.87,7.5,3-6.35,5.25,6.35Z"/><path class="cls-8" d="M121.34,96.13l8.79-34.32c7.78,25.21,7.14,52.37,5.69,67.31l-3.36-7.06-3.8,8.22-4.08-5.78-4.37,7.14Z"/><path class="cls-3" d="M120.6,92.51l10-40.2c7.78,25.21,9,57.06,7.58,72l-3.37-7.06L131,125.46l-4.08-5.77-4.38,7.14Z"/></g></g></g></svg>