<svg xmlns="http://www.w3.org/2000/svg" xmlns:xlink="http://www.w3.org/1999/xlink" viewBox="0 0 216.28 195.87"><defs><style>.cls-1{fill:url(#linear-gradient);}.cls-2{fill:#1cbc7c;}.cls-11,.cls-3,.cls-5{fill:#231f20;}.cls-3{opacity:0.1;}.cls-4{fill:#bf7249;}.cls-5{opacity:0.3;}.cls-6{fill:url(#linear-gradient-2);}.cls-7{fill:url(#linear-gradient-3);}.cls-8{fill:#ede7dc;}.cls-9{fill:#fbb040;}.cls-10{fill:#40c7de;}.cls-11{opacity:0.05;}.cls-12{fill:#fff;}.cls-13{fill:#fff9ed;}.cls-14{fill:#414042;}.cls-15{mask:url(#mask);}.cls-16{fill:#743618;}.cls-17{fill:#f15a29;}</style><linearGradient id="linear-gradient" x1="5.58" y1="163.23" x2="211.97" y2="163.23" gradientUnits="userSpaceOnUse"><stop offset="0"/><stop offset="0.02" stop-color="#303030"/><stop offset="0.05" stop-color="#5b5b5b"/><stop offset="0.08" stop-color="#828282"/><stop offset="0.11" stop-color="#a4a4a4"/><stop offset="0.14" stop-color="silver"/><stop offset="0.18" stop-color="#d8d8d8"/><stop offset="0.22" stop-color="#e9e9e9"/><stop offset="0.27" stop-color="#f6f6f6"/><stop offset="0.34" stop-color="#fdfdfd"/><stop offset="0.5" stop-color="#fff"/><stop offset="0.66" stop-color="#fdfdfd"/><stop offset="0.73" stop-color="#f6f6f6"/><stop offset="0.78" stop-color="#e9e9e9"/><stop offset="0.82" stop-color="#d8d8d8"/><stop offset="0.86" stop-color="silver"/><stop offset="0.89" stop-color="#a4a4a4"/><stop offset="0.92" stop-color="#828282"/><stop offset="0.95" stop-color="#5b5b5b"/><stop offset="0.98" stop-color="#303030"/><stop offset="1"/></linearGradient><linearGradient id="linear-gradient-2" x1="90.51" y1="189.87" x2="54.92" y2="26.14" gradientUnits="userSpaceOnUse"><stop offset="0" stop-color="#00b553"/><stop offset="0.99" stop-color="#218ade"/></linearGradient><linearGradient id="linear-gradient-3" x1="147.02" y1="198.66" x2="111.42" y2="34.93" xlink:href="#linear-gradient-2"/><mask id="mask" x="0" y="158.21" width="216.28" height="10.04" maskUnits="userSpaceOnUse"><polygon class="cls-1" points="2.23 159.32 75.69 158.21 107.5 158.76 124.24 158.76 137.07 161 168.88 159.88 216.28 159.32 215.17 168.25 158.28 167.13 121.56 166.94 87.41 165.46 58.39 165.46 0 166.02 2.23 159.32"/></mask></defs><title>Asset 23</title><g id="Layer_2" data-name="Layer 2"><g id="Layer_1-2" data-name="Layer 1"><path class="cls-2" d="M69,12.81,53.44,5.23S53,20.3,59.92,26.16Z"/><path class="cls-2" d="M118.08,11.16,133,0s4,15.9-2.72,23.23Z"/><path class="cls-3" d="M60.93,13.12a24.84,24.84,0,0,1-5.86,4.68c1,3.22,2.47,6.34,4.85,8.36L69,12.81l-5.37-2.62A25.52,25.52,0,0,1,60.93,13.12Z"/><path class="cls-3" d="M123.26,7.27l-5.18,3.89,12.16,12.07c2.44-2.67,3.46-6.49,3.77-10.26A31.58,31.58,0,0,1,123.26,7.27Z"/><polygon class="cls-4" points="107.22 161.14 141.54 195.88 134.42 177.46 153.68 189.18 152 179.97 172.09 182.9 134.42 160.72 107.22 161.14"/><polygon class="cls-5" points="107.22 161.14 141.54 195.88 134.42 177.46 153.68 189.18 152 179.97 172.09 182.9 134.42 160.72 107.22 161.14"/><path class="cls-5" d="M120.54,174c10.94-.72,21.89-1.23,32.82-2.09l-18.94-11.15-27.2.42L119.93,174Z"/><path class="cls-6" d="M87.13,56.08c-13.45,3.57-27.71,8.16-36.39,19.75a37.44,37.44,0,0,0-5.38,36.08c3.45,9.19,9.88,17,17.32,23.41A87,87,0,0,0,99.57,154C106.8,97.31,87.13,56.08,87.13,56.08Z"/><path class="cls-4" d="M130.68,48.62,48.21,61.12c-.36,38.59,17.43,78.65,50.7,98.21,6.94,4.07,14.61,7.26,22.65,7.61s16.49-2.53,21.54-8.79c3.35-4.15,5-9.4,6.18-14.59A120,120,0,0,0,130.68,48.62Z"/><path class="cls-3" d="M124.91,100.38c-7.22,1.05-14.41,2.05-21.72,2a156.08,156.08,0,0,1-21.78-2.22,109.34,109.34,0,0,1-29.89-9.22c6.55,28.11,22.71,53.91,47.39,68.42,6.94,4.07,14.61,7.26,22.65,7.61s16.49-2.53,21.54-8.79c3.35-4.15,5-9.4,6.18-14.59a118.77,118.77,0,0,0,.48-50.43A96.78,96.78,0,0,1,124.91,100.38Z"/><path class="cls-3" d="M119.88,120.84A183.83,183.83,0,0,1,78,126.07a117.34,117.34,0,0,1-12.61-.56,96.5,96.5,0,0,0,33.49,33.82c6.94,4.07,14.61,7.26,22.65,7.61s16.49-2.53,21.54-8.79c3.35-4.15,5-9.4,6.18-14.59a117.37,117.37,0,0,0,2.64-34.76A139,139,0,0,1,119.88,120.84Z"/><path class="cls-3" d="M130.93,142.52a128.74,128.74,0,0,1-45.68,6.9,89.5,89.5,0,0,0,13.66,9.91c6.94,4.07,14.61,7.26,22.65,7.61s16.49-2.53,21.54-8.79c3.35-4.15,5-9.4,6.18-14.59.74-3.2,1.32-6.43,1.78-9.67A145,145,0,0,1,130.93,142.52Z"/><path class="cls-5" d="M111.69,128.42c-1,2.4-2.13,4.76-3.26,7.1a100.22,100.22,0,0,1-7.88-6.4l-2.37.67a80.74,80.74,0,0,1-3,8A39.71,39.71,0,0,1,88,132.18c-.87.14-1.74.26-2.62.34-1.52,2.75-2.78,5.75-4.06,8.69A51.16,51.16,0,0,1,74,135.12a1.26,1.26,0,0,0-1.94.11q3,4,6.47,7.64c.42.31.84.62,1.27.92q2-.64,4-1.14c1.16-2.46,2.35-4.9,3.37-7.44a38.26,38.26,0,0,0,6.49,5.37l1.81-.37,2-.4c1-2.42,1.83-4.81,2.62-7.31,2.21,2,4.44,4.05,6.74,5.94l4-.5a57.48,57.48,0,0,0,3.39-8.28C114.72,128,112.38,126.82,111.69,128.42Z"/><path class="cls-5" d="M66.55,115.71a69.46,69.46,0,0,1,4.37-6.4,64.56,64.56,0,0,1,5.36,7.47c.47,0,.94.06,1.41.08l2.15.07a40.63,40.63,0,0,1,5.51-8c1.65,2.34,3.37,4.66,4.8,7.11.21.36.4.73.61,1.09,2,0,4,.14,5.93.31,2.33-2.3,4.31-6.37,5.3-8,1.18-2-1.9-3.75-3.08-1.79A43.89,43.89,0,0,1,95.15,113l-1.6,1.82c-1.1-1-2.3-3.48-3-4.52q-1.38-2.09-2.79-4.14c-1.5,0-3-.14-4.49-.24-1.88,2.3-3.59,4.7-5.31,7.12-1.92-2.34-3.6-5-5.36-7.38-1.12.06-2.25.1-3.37,0-1.6,2.25-3.19,4.48-4.69,6.79a122.28,122.28,0,0,0-10.29-11.68c.82,2.56,1.74,5.09,2.73,7.59,2,2.27,3.86,4.62,5.6,7C63.9,115.49,65.22,115.58,66.55,115.71Z"/><path class="cls-5" d="M150.43,137.89a73.9,73.9,0,0,0-.94-10.61L106.87,84.61c-11,5.44-16.53,19-14.93,31.17s9.13,23,18.39,31.07c8.46,7.41,18.92,13.09,30.05,14.08a21,21,0,0,0,2.72-2.78c3.35-4.15,5-9.4,6.18-14.59C149.71,141.68,150.09,139.78,150.43,137.89Z"/><path class="cls-7" d="M143.63,64.87c-13.45,3.57-27.71,8.16-36.39,19.75a37.44,37.44,0,0,0-5.38,36.08c3.45,9.18,9.88,17,17.32,23.41a87.2,87.2,0,0,0,36.89,18.72C163.3,106.1,143.63,64.87,143.63,64.87Z"/><path class="cls-3" d="M146.75,88.31C132.89,99,116.63,103.85,99.5,105.71a37.39,37.39,0,0,0,2.36,15c3.45,9.18,9.88,17,17.32,23.41a87.2,87.2,0,0,0,36.89,18.72,200.44,200.44,0,0,0-5.39-77.72C149.4,86.21,148.08,87.28,146.75,88.31Z"/><path class="cls-3" d="M109.22,133.69a70.12,70.12,0,0,0,10,10.42,87.2,87.2,0,0,0,36.89,18.72,200.86,200.86,0,0,0,.27-48.28C142,123.91,125.11,130.16,109.22,133.69Z"/><path class="cls-8" d="M118.08,11.16c12.14,5.71,23.69,14.68,28,27.4,5.07,15.13-1.68,31.14-13.22,41.3C119.7,91.38,101.23,94.2,84.4,91.59c-11.71-1.81-23.6-6.54-30.79-16-10-13.16-8.26-32.63.46-46.71A57.59,57.59,0,0,1,69,12.81S94.35,22,118.08,11.16Z"/><polygon class="cls-9" points="99.06 67.38 89.85 67.17 94.03 77.22 99.06 67.38"/><path class="cls-10" d="M69,12.81S95.08,28,89.85,67.17l9.21.21s-3.81-39.42,19-56.22C94.35,22,69,12.81,69,12.81Z"/><path class="cls-11" d="M103.83,30.92a31.29,31.29,0,0,1-10.36,1.82A32.21,32.21,0,0,1,85,31.61c4.13,8.52,6.91,20.19,4.86,35.56l9.21.21S97.21,48.22,103.83,30.92Z"/><path class="cls-3" d="M99.6,48.45a57.8,57.8,0,0,1-9.56.62,70.27,70.27,0,0,1-.19,18.1l9.21.21A95.07,95.07,0,0,1,99.6,48.45Z"/><path class="cls-12" d="M87.36,59.38c4.92-12-2.83-27.36-16.83-27.92C53.43,30.79,43.76,54.82,55.46,67,63.36,75.17,78.71,72,85,63.53A19.23,19.23,0,0,0,87.36,59.38Z"/><path class="cls-13" d="M87.35,59.41c-3.86-2.91-7.69-5.87-11.52-8.83q6.47-.28,12.92-.79a21.64,21.64,0,0,0-.47-2.9q-7,.54-14,.82c2.86-3.62,5.55-7.37,8.24-11.11a18.58,18.58,0,0,0-2.34-1.91c-2.41,3.38-4.94,6.66-7.48,10Q72,38.09,71.4,31.53l-.87-.07a18.08,18.08,0,0,0-2.56.11q.63,7,1.31,14c-4.08-2.83-8.18-5.67-12.34-8.4a20.78,20.78,0,0,0-2.46,3c4.24,2.82,8.5,5.63,12.7,8.54C61.55,50.34,56,52,50.34,53.65a21.11,21.11,0,0,0,.2,3c5.57-1.87,11.21-3.54,16.87-5.13q-5.49,8.19-11.06,16.31A14.21,14.21,0,0,0,59,69.67q5.31-8.23,10.69-16.45c.05,6.16-.16,12.31-.47,18.46a23.38,23.38,0,0,0,3.6-.55c.22-6.35.16-12.69-.06-19,4.37,3.38,8.76,6.74,13.09,10.17A18.94,18.94,0,0,0,87.35,59.41Z"/><path class="cls-12" d="M138.43,59.38c4.91-12-2.84-27.36-16.84-27.92-17.1-.67-26.76,23.36-15.07,35.51,7.9,8.2,23.25,5.06,29.56-3.44A19.71,19.71,0,0,0,138.43,59.38Z"/><path class="cls-13" d="M135.21,38.37a20.14,20.14,0,0,0-2.16-2.27L116.9,44.49c1.83-4.36,3.71-8.68,5.76-13l-1.07-.08a18.89,18.89,0,0,0-2.14.07c-2.17,4.27-4.19,8.64-6,13.08-1.65-2.68-3.3-5.35-4.93-8a20.54,20.54,0,0,0-2.16,2.4c1.75,3,3.57,5.92,5.5,8.79-3.28.2-6.56.31-9.85.35a24.91,24.91,0,0,0-.52,3q4.93-.06,9.85-.4c-2.74,3.8-5.49,7.59-8.18,11.43a18.38,18.38,0,0,0,1.7,2.89q3.77-5.65,7.75-11.17c-.09,5.61-.23,11.21-.38,16.82a17.44,17.44,0,0,0,3.59.88q0-8,0-16c3.21,5.1,6.58,10.11,10.2,14.92a22.75,22.75,0,0,0,3.13-1.32c-4.61-6.09-9-12.29-13.11-18.78q11.91.57,23.83,1a21.69,21.69,0,0,0-.25-2.9l-21.69-1Q126.6,43,135.21,38.37Z"/><path class="cls-14" d="M73.42,46.35c2.3,2.6-1.58,8.26-4,5.54a5.31,5.31,0,0,1-.83-4.26C69.31,44.72,72,44.77,73.42,46.35Z"/><path class="cls-14" d="M116.07,45.93c2.31,2.6-1.57,8.26-3.94,5.54a5.31,5.31,0,0,1-.83-4.26C112,44.3,114.67,44.36,116.07,45.93Z"/><g class="cls-15"><polygon class="cls-16" points="2.23 159.32 75.69 158.21 107.5 158.76 124.24 158.76 137.07 161 168.88 159.88 216.28 159.32 215.17 168.25 158.28 167.13 121.56 166.94 87.41 165.46 58.39 165.46 0 166.02 2.23 159.32"/></g><path class="cls-17" d="M74.28,162.39c.48,8.82,15.22,7.31,13.48-2.2S74.28,153.58,74.28,162.39Z"/><path class="cls-3" d="M80.5,162.91a32.47,32.47,0,0,1-6.22-.61v.09c.45,8.23,13.32,7.46,13.61-.42A30.18,30.18,0,0,1,80.5,162.91Z"/><path class="cls-17" d="M106.92,162.39c.49,8.82,15.23,7.31,13.48-2.2S106.92,153.58,106.92,162.39Z"/><path class="cls-3" d="M114.82,162.07h-.42a33.58,33.58,0,0,1-7.4-.86,11.12,11.12,0,0,0-.08,1.18c.46,8.34,13.67,7.44,13.62-.74A26.37,26.37,0,0,1,114.82,162.07Z"/><path class="cls-2" d="M50.56,175.47a9.35,9.35,0,0,1-3.46-2.26,15.39,15.39,0,0,0-3.41-2.11,1,1,0,0,0-.87-.11c-.35.16-.42.62-.41,1a6.87,6.87,0,0,0,.67,2.75c-1.56-1.86-3.39-3.87-5.82-4a9.26,9.26,0,0,0,1.31,5.06A8.37,8.37,0,0,0,32,179.4a6.83,6.83,0,0,0,5.33-.8,4.28,4.28,0,0,0-1.16,2.4.77.77,0,0,0,.1.6c.24.29.7.15,1,0,3.9-2,7.84-3.84,11.74-5.8Z"/><polygon class="cls-16" points="62.58 162.39 52.53 173.27 31.6 189.18 32.16 191.41 53.37 175.51 68.44 162.95 62.58 162.39"/><path class="cls-2" d="M57.19,191a7.27,7.27,0,0,1,1.36,2.24c.42.77,1.19,1.51,2.06,1.34a1.75,1.75,0,0,0,1.2-1.91,5.24,5.24,0,0,0-1-2.25,1.73,1.73,0,0,0,3-1,3,3,0,0,0-.48-1.62,8.69,8.69,0,0,0-3.8-3.55,1.92,1.92,0,0,0,2.3-1.22,3,3,0,0,0-.55-2.73,7.16,7.16,0,0,0-2.25-1.79A25.93,25.93,0,0,0,52.94,176a.73.73,0,0,0-1,.51,24.18,24.18,0,0,0-2.49,9.5,2,2,0,0,0,.22,1.25,1.42,1.42,0,0,0,1.79.29,3.89,3.89,0,0,0,1.34-1.42,9.09,9.09,0,0,0-.24,3.56,4.82,4.82,0,0,0,1,2.52,2.5,2.5,0,0,0,2.44.91A1.73,1.73,0,0,0,57.19,191Z"/><path class="cls-5" d="M157.06,122q-2.22,4.11-4.62,8.12a36.17,36.17,0,0,1-5.51-4.13c-1.34.7-2.71,1.35-4,2.09-.68,2.45-1.35,4.9-1.94,7.37a34.83,34.83,0,0,1-3.73-3.85c-1.26.77-2.53,1.54-3.78,2.33-.88,2.72-1.71,5.46-2.54,8.2a61.54,61.54,0,0,1-6.16-3.61l-.08,0c-.83.41-1.67.83-2.47,1.29l-1.5,5.61q1.42,1.17,2.91,2.28c.44-1.67.89-3.34,1.33-5a60.74,60.74,0,0,0,5.84,3.15c1-.36,1.92-.74,2.87-1.13.94-3.05,1.9-6.1,2.8-9.16,1.24,1.31,2.53,2.56,3.87,3.77,1.19-.51,2.41-1,3.62-1.44.61-2.77,1.24-5.53,2-8.27a36.91,36.91,0,0,0,5.44,3.87c1.29-.5,2.59-.95,3.89-1.42.74-1.24,1.47-2.48,2.19-3.73C157.35,126.15,157.22,124.06,157.06,122Z"/><path class="cls-5" d="M124,120.39c1.35-3.63,2.75-7.24,4.12-10.86,1.91,1.59,3.82,3.22,5.83,4.64l.59.39c1.76-.58,3.53-1.09,5.32-1.56.18-.37.34-.75.5-1.15a66.59,66.59,0,0,0,2.7-8.34c1.94,2.1,3.82,4.27,5.78,6.35,1.13-.36,2.25-.76,3.35-1.2.78-2.24,1.55-4.48,2.33-6.73-.42-2.33-.87-4.57-1.33-6.72l-3.63,10.3c-2-2-4-4.05-5.92-6.15-1.08.51-2.18,1-3.28,1.48-.42,1.25-.82,2.51-1.22,3.77-.45,1.42-.8,4.44-1.77,5.55-.12,1.29-.94,1.44-2.47.47L133,109.1l-4.43-3.57,0,0c-1,.25-1.89.51-2.82.82-1.41,3.8-2.76,7.61-4.16,11.41a61,61,0,0,1-7.07-7.13c-1,.07-2,.09-2.94.08-2.51,5-5,9.92-7.49,14.87q.93,1.81,2,3.54,3.68-7.38,7.34-14.75a61.34,61.34,0,0,0,7.29,6.84C121.76,121,122.87,120.68,124,120.39Z"/><path class="cls-3" d="M125.86,75.72c-12.94,3-26.62,5-39.93,4.35a112.1,112.1,0,0,1-34.06-7,29.39,29.39,0,0,0,1.74,2.55c7.19,9.42,19.08,14.15,30.79,16,16.83,2.61,35.3-.21,48.41-11.73a46.91,46.91,0,0,0,7.91-9A84.17,84.17,0,0,1,125.86,75.72Z"/></g></g></svg>