<svg xmlns="http://www.w3.org/2000/svg" viewBox="0 0 233.14 216.91"><defs><style>.cls-1,.cls-6{fill:#231f20;}.cls-1{opacity:0.1;}.cls-2{fill:#452d18;}.cls-3{fill:#382514;}.cls-4{fill:#54371d;}.cls-5{fill:#82552d;}.cls-6{opacity:0.2;}.cls-7{fill:#f7941e;}.cls-8{fill:#54423c;}.cls-9{fill:#5f4b44;}.cls-10{fill:#4389ab;}.cls-11{fill:#4c9bc2;}.cls-12{fill:#55add9;}.cls-13{fill:#cc181f;}.cls-14{fill:#ed1c24;}</style></defs><title>Asset 7</title><g id="Layer_2" data-name="Layer 2"><g id="Layer_1-2" data-name="Layer 1"><path class="cls-1" d="M0,199.42H185.26S99.82,238.77,0,199.42Z"/><path class="cls-2" d="M233.14,109.47h-33.4S230,92.37,231.25,84.84L192.81,91S213,66.37,211.72,52c0,0-12.61,14-28,22.58,0,0,14.17-20.19,14.49-44.48L172.65,65.68s8.51-27.37,6.3-49.94c-8.82,13.34-18.59,42.42-18.59,42.42s.95-41.06-5-53.37c-6,7.18-13.55,52-13.55,52s-.63-34.9-11.34-52.68c0,0-7.56,27.36-5.36,54.73,0,0-4.41-30.1-16.07-45.5,0,0-2.41,26,1.34,48.15C108.5,55,103,37.91,95.45,32.16c0,0-1.26,19.84,5.68,35.92,0,0-6.31-14.71-16.07-17.11,0,0,.94,11,8.5,23.26a95,95,0,0,0-12-10.17s1.18,9.83,5.91,15.65l-9.69-1.28,5.75,9.15L75.6,88.69l5.52,7.61-7.56,1.8,8,5.9,60.81,38.31s63.65,6.84,85.07-6.16L196,125.89S228.1,117,233.14,109.47Z"/><path class="cls-3" d="M185.07,110.71s6-7.59,8.75-10.93l-14.37-1c3.32-4.15,7.76-10.27,8.54-15.52-3.61,1.08-9.58,2.79-13.34,3,1.31-4.17,3.21-10.47,2.3-14.75-2.84,1.34-7.37,4.46-10.22,5.8,1.24-7.34,1.19-9.68,0-14.78-3.08,2.31-7.7,5.9-11.39,8.71-1.18-5.63-1.82-11.66-5.16-16.15-2.43,3-9.19,11.4-9.19,11.4l-8.64-11.15-7.43,11.58L116.37,60,114,70.44l-8.15-3.56-.42,8-6.79-2.25L100,80.41l-7.33-.7L95,86.8,87,86.74l2.74,5.56a32.9,32.9,0,0,1-6.44,1.85l3.1,4L79.57,103c4,4.1,11.88,7.19,16.89,10.34l19.61,12.36,26.33,16.59c7.35.79,14.75,1.22,22.13,1.51,6.8.27,14.17,1,20.94.2,1.78-.22,15-8,13.32-9.26A55.47,55.47,0,0,1,187,122.65c3.24-1.65,7.37-3.83,10.61-5.48C193.93,115.08,185.07,110.71,185.07,110.71Z"/><path class="cls-4" d="M185.81,144a131.43,131.43,0,0,0-4.09-24.93c-4.65-16.88-14.36-32.89-28.94-40.62-20.7-11-49.35-2.9-61.08,17.19a18.19,18.19,0,0,0-2.61,6.64c-1.26,9.18,14.19,19.81,20,25.61l15.32,15.44S163.71,144.6,185.81,144Z"/><path class="cls-5" d="M177.85,144.14c-.46-6.14-1.07-12.36-1.22-13.31C174,114,167.29,95.52,151.74,86.3a43.59,43.59,0,0,0-34.37-4.38c-13,3.83-21.73,13.26-28.18,24.8,2.89.25,5.71-1.13,8-3s4.08-4.13,6.14-6.17c14.53-14.35,38.08-12.91,51.84,1.83,11.7,12.53,14.91,28.36,16.09,44.75C173.49,144.17,175.71,144.16,177.85,144.14Z"/><path class="cls-6" d="M231.25,84.84l-14.2,2.28A69.53,69.53,0,0,1,208,92.18c-39.67,19.13-91.91,21.47-127.85-4.13l-4.53.64,5.52,7.61-7.56,1.8,8,5.9,60.81,38.31s63.65,6.84,85.07-6.16L196,125.89s32.14-8.89,37.18-16.42h-33.4S230,92.37,231.25,84.84Z"/><polygon class="cls-7" points="67.74 191.23 67.4 203.97 54.91 203.63 54.74 207.39 70.82 207.22 69.97 191.23 67.74 191.23"/><polygon class="cls-7" points="99.56 191.23 99.21 203.97 86.73 203.63 86.56 207.39 102.64 207.22 101.78 191.23 99.56 191.23"/><path class="cls-8" d="M78.26,174.37,58.5,177.74A25.25,25.25,0,0,0,69,195.12,23.82,23.82,0,0,0,78.26,174.37Z"/><path class="cls-8" d="M110.33,174.37l-19.76,3.37A25.25,25.25,0,0,0,101,195.12,23.79,23.79,0,0,0,110.33,174.37Z"/><path class="cls-9" d="M138.63,101.85,49.54,100l-33.09.41a87.85,87.85,0,0,0,.44,29.45c3.93,20.37,17.54,40.84,36.8,49.56,19.82,9,44.7,7.76,62.45-5.34C137.42,158.32,145.25,126.87,138.63,101.85Z"/><path class="cls-8" d="M123.05,137.28a89.22,89.22,0,0,0-14.6-8.31A48.43,48.43,0,0,0,119.25,115l-72.71.51c-1,15.58,8.22,30.75,21.32,39.25s29.45,10.94,45,9.36L101.39,145A33.25,33.25,0,0,0,123.05,137.28Z"/><path class="cls-8" d="M20.39,142c6.11,15.94,17.9,30.43,33.3,37.41,19.82,9,44.7,7.76,62.45-5.34,9.51-7,16.32-17.19,20.37-28.51A77.67,77.67,0,0,1,104.35,164C73.75,172.53,39.69,165.49,20.39,142Z"/><path class="cls-10" d="M56.38,26.44a23.73,23.73,0,0,0-6.8-10.58c1.84-3.47,3.64-7,5.36-10.51L44.84,7.84C46.1,5.3,47.13,2.61,48.35,0,30.66,5.31-1.07,20.71,4.42,44.11c2,8.35,9.46,15.36,18,15.86a18.5,18.5,0,0,0,14.87-6.28l-3.41,5.2A124.14,124.14,0,0,0,16.93,88c-3.73,9.43-6.36,22-4.08,32.13a18.58,18.58,0,0,0,10.52-12.16A7.82,7.82,0,0,0,32,110.25a7.83,7.83,0,0,0,4.88-7.5,23.07,23.07,0,0,0,14.49,3.71c-2.94.25,2.34-25.53,2.86-27.79a162,162,0,0,0,4.1-35.44C58.38,37.57,58.14,31.82,56.38,26.44Z"/><path class="cls-11" d="M56.38,26.44a23.73,23.73,0,0,0-6.8-10.58c1.84-3.47,3.64-7,5.36-10.51L44.84,7.84C46.1,5.3,47.13,2.61,48.35,0c-14.94,4.49-39.9,16.17-44,33.8a40.25,40.25,0,0,0,27.14,7.1A46.66,46.66,0,0,0,57.25,29.72,33.69,33.69,0,0,0,56.38,26.44Z"/><path class="cls-12" d="M10.9,33.6c3.26,7.15,13.74,8.67,21,5.31,8.5-4,10.91-16,1.16-20.19A19.44,19.44,0,0,0,13.9,21.8c-3.44,3.05-4.86,7.66-3,11.75Z"/><path class="cls-13" d="M23.73,41.65C22.35,56.38,21,71.39,24.94,85.77a9.32,9.32,0,0,0,1.89,4,4.73,4.73,0,0,0,4.42,1.5c2-.51,2.91-2.45,3.4-4.19,3.12-11.07-.79-22.66-5.38-33.34Q26.66,47.64,23.73,41.65Z"/><path class="cls-14" d="M23.73,41.65A53,53,0,0,0,10.21,75.48c-.14,7.66,1.52,16.9,6.49,23.38.81,1.06,2,2.19,3.47,2a3.5,3.5,0,0,0,2.33-2c1.76-3.19,2.2-6.78,2.49-10.3C25.76,79,25.73,51.1,23.73,41.65Z"/><path class="cls-7" d="M8.36,37.05a2,2,0,0,0-.82.6,1.41,1.41,0,0,0,.18,1.62,3.59,3.59,0,0,0,1.45.93A19,19,0,0,0,21.36,41c-3.79,1-7.68,2.12-10.81,4.5-.31.24-.66.58-.57,1a.92.92,0,0,0,.33.49c3.19,2.79,14.84.32,13.42-5.28C22.1,35.24,13.22,34.75,8.36,37.05Z"/><path class="cls-4" d="M121.58,132.89a89.58,89.58,0,0,0-14.6-8.32,48.38,48.38,0,0,0,10.81-13.93l-72.71.51c-1,15.58,8.22,30.75,21.32,39.25s29.44,10.94,45,9.36L99.93,140.59A33.28,33.28,0,0,0,121.58,132.89Z"/><path class="cls-2" d="M121.58,132.89a89.58,89.58,0,0,0-14.6-8.32,48.38,48.38,0,0,0,10.81-13.93l-12.62.09c-6,17.55-16.52,33.74-32.29,43.26,11.8,5.57,25.43,7.1,38.5,5.77L99.93,140.59A33.28,33.28,0,0,0,121.58,132.89Z"/><path class="cls-3" d="M19.86,24.48c-.62,1.78-1.68,4.14-3.35,5.11-3,1.73-2.46-3.46-2-5-.53.07-1.07.15-1.6.24-.72,2.44-.8,6.31,2.26,6.63,3.33.35,5.38-4.24,6.24-6.77Z"/><path class="cls-3" d="M34.7,23.75c-.27,2.62-1.72,6.4-4.5,7.1-2,.52-3.26-1.24-3.47-3.06a13.06,13.06,0,0,1,.47-3.94c-.57,0-1.13.1-1.69.19-.85,3.37-.27,8.66,4.11,8.58,4-.08,6.28-5.3,6.66-8.78A9.13,9.13,0,0,0,34.7,23.75Z"/><path class="cls-5" d="M96.13,110.79l-7.87.06c-5.23,14.38-14.6,27.49-26.77,35.91a50.34,50.34,0,0,0,4.64,3.46C80.5,141.72,91,127.05,96.13,110.79Z"/></g></g></svg>