<svg xmlns="http://www.w3.org/2000/svg" viewBox="0 0 226.2 217.19"><defs><style>.cls-1,.cls-7{fill:#231f20;}.cls-1{opacity:0.1;}.cls-2{fill:#f7941e;}.cls-3{fill:#452d18;}.cls-4{fill:#2b1c0f;}.cls-5{fill:#382514;}.cls-6{fill:#d4ad99;}.cls-7{opacity:0.05;}.cls-8{fill:#f7ebce;}.cls-9{fill:#5f4b44;}.cls-10{fill:#54423c;}.cls-11{fill:#665149;}</style></defs><title>Asset 8</title><g id="Layer_2" data-name="Layer 2"><g id="Layer_1-2" data-name="Layer 1"><path class="cls-1" d="M28.22,193.84H225.51S134.52,246.38,28.22,193.84Z"/><polygon class="cls-2" points="138.2 175.19 137.88 196.34 125.98 196.01 125.81 199.59 141.14 199.43 140.32 175.19 138.2 175.19"/><path class="cls-3" d="M143.62,162l-10.35,3.36a41.56,41.56,0,0,0,7.31,15.86A47.69,47.69,0,0,0,143.62,162Z"/><polygon class="cls-2" points="116.99 173.31 116.94 196.34 105.04 196.01 104.88 199.59 120.2 199.43 119.11 173.31 116.99 173.31"/><path class="cls-3" d="M212.1,194.81c1.14-20.91-8.73-49.1-18.31-68.28L179,136.77c-.34-1-.69-2-1.05-3l-19.6,10.64-17-4.7c0-1.27-.11-2.54-.2-3.81l-19.62-5.43-13.11-9.72a56,56,0,0,0-.88-12.39L85.82,81.11c-1.69,22.5,4.58,44.8,17,61.83a56,56,0,0,0,3.77-10.28A58.17,58.17,0,0,0,117.9,161a60.18,60.18,0,0,0,4.52-14c1.23,6.86,1.94,16.24,10.42,17.3,5.85.74,7.23-3.84,7.79-8.48a65.91,65.91,0,0,0,2.53,10.23c2.82,8.32,7.51,15.87,14.09,21.29a76.36,76.36,0,0,0,4.35-26.12,84.28,84.28,0,0,0,22.8,35.8,127,127,0,0,0,.61-33.57C192.53,176.22,202.62,188,212.1,194.81Z"/><path class="cls-3" d="M170.11,121.31l-73.37-18.7c2.7,27.37,6,56.31,22.75,78.12q.48-6.75,1-13.5c-.07,1,20.07,1.69,22.13,1.37a31.73,31.73,0,0,0,19-10.23,36.61,36.61,0,0,0,5.69-8.93C171.58,140.05,171.52,131.22,170.11,121.31Z"/><path class="cls-4" d="M143.94,129.36l-20.36-5a74.42,74.42,0,0,0,16.57,45.93c2.9-3.69,3.82-8.54,4.34-13.21A107,107,0,0,0,143.94,129.36Z"/><path class="cls-4" d="M108.45,103,86.24,77.9a91.67,91.67,0,0,0,19.47,59.4A54.81,54.81,0,0,0,108.45,103Z"/><path class="cls-4" d="M125.7,125.75l-17.66-12a62,62,0,0,0,14,41.78A60.36,60.36,0,0,0,125.7,125.75Z"/><path class="cls-4" d="M163.79,138l-21.29-5.26a85.94,85.94,0,0,0,6,27.77,55.58,55.58,0,0,0,16.8,22.68A80.37,80.37,0,0,0,163.79,138Z"/><path class="cls-4" d="M181.84,126.32l-20,11.69a103.51,103.51,0,0,0,33.92,55.75A140.74,140.74,0,0,0,181.84,126.32Z"/><path class="cls-4" d="M197.67,118.52l-18.5,13.91c7.35,20.88,28.58,46.51,47,58.74C224.56,168,210.13,138.08,197.67,118.52Z"/><path class="cls-5" d="M20.33,8.58a26.79,26.79,0,0,0-5.26-.75A14.89,14.89,0,0,0,0,22.69a13,13,0,0,1,7.33-3.34c4.83-.82,9.78-.3,14.66.22Z"/><path class="cls-6" d="M83.39,60.72,63.72,58.63S63,30.15,62.51,27.48C61,18.38,57.66,8.85,49.59,3.59,39.24-3.16,16.27-1,17.28,15.49c.64,10.36,11.52,13.66,20.1,14.85-.44-.07.85,17.05,1.12,18.57,1.17,6.45,3.29,12.9,7.14,18.28,11.48,16,33.48,14.07,50.76,15.19Z"/><path class="cls-7" d="M68.39,70.16C47.47,61,44.12,36.68,48.31,16.59,38.17,20,27,18.43,17.27,13.75c0,.56,0,1.14,0,1.74.64,10.36,11.52,13.66,20.1,14.85-.44-.07.85,17.05,1.12,18.57,1.17,6.45,3.29,12.9,7.14,18.28,11.48,16,33.48,14.07,50.76,15.19l-5.48-9.11A47.63,47.63,0,0,1,68.39,70.16Z"/><path class="cls-8" d="M93,52.71a96,96,0,0,0-2.31-15.46,58.53,58.53,0,0,1-7.25,17.3L71.25,43.69c1.53,5.75,4.64,19,4.64,19s-10.54,6.51-15.4,8.93l14.92.94a100.47,100.47,0,0,1-7.07,19.85L80.43,85l.07,10.54a84.15,84.15,0,0,0,23-52.66A98,98,0,0,1,93,52.71Z"/><path class="cls-4" d="M197.81,123.58c-7.36-14.2-22-23.62-37.51-27.6s-31.83-3.07-47.65-.78l-12.58,8.23c2.53,10.93,9.67,20.54,18.87,27s20.35,9.79,31.54,10.56a76.51,76.51,0,0,0,45.2-11.18c1.32-.82,2.74-1.87,2.91-3.42A5,5,0,0,0,197.81,123.58Z"/><path class="cls-9" d="M131.18,101.13c15.9,11.72,36,9.21,51.06-1.67a36.1,36.1,0,0,0,6.11-4.76,90.37,90.37,0,0,0-23.76-20.86c-17.25-10.66-36.12-14.2-50.83-15.05C109.71,74.58,118.3,91.83,131.18,101.13Z"/><path class="cls-10" d="M194,103a72.28,72.28,0,0,0-5.64-8.28,36.1,36.1,0,0,1-6.11,4.76c-15.07,10.88-35.16,13.39-51.06,1.67-12.88-9.3-21.47-26.55-17.42-42.34A120,120,0,0,0,87.84,59.9c-12.13,33.77,16.67,64.93,48.58,71a90.28,90.28,0,0,0,20.82,1.39,124.7,124.7,0,0,0,24.15-3.63q6-1.47,11.84-3.37c.61-.19,9.84-3.55,9.82-3.6A153.71,153.71,0,0,0,194,103Z"/><path class="cls-11" d="M183.89,89.51a36,36,0,0,1-10.39,9c-14.43,8.16-34.22,5.3-45.75-6.61-8.26-8.53-11.71-21.12-9.86-32.79-2.25-.2-4.44-.34-6.52-.43-3.84,14.4-.12,30.89,10.3,41.66,13.11,13.54,35.61,16.79,52,7.51A41.77,41.77,0,0,0,188,94.22C186.68,92.59,185.31,91,183.89,89.51Z"/><path class="cls-5" d="M30.17,7.63c-.17,2.1-.7,4.49-2.73,5.44-2.74,1.27-2.79-3.4-2.64-5.53l-1.68,0c-.23,2.83-.1,8.18,3.77,7.61,3.67-.55,4.83-4.24,5-7.48Z"/><path class="cls-5" d="M43.48,7.78a11.59,11.59,0,0,1-.78,3.79c-.59,1.24-2,2.51-3.48,1.9-1.68-.71-2-3.75-2.23-5.82l-1.75,0c.3,3.1.6,7.76,4.41,8,4.28.28,5.68-4.28,5.77-7.75C44.78,7.87,44.13,7.83,43.48,7.78Z"/><path class="cls-11" d="M157.24,132.29a124.7,124.7,0,0,0,24.15-3.63q6-1.47,11.84-3.37c.61-.19,9.84-3.55,9.82-3.6-.72-2-2.21-5.35-3.92-8.9-12.58,7.75-28.62,11-42.42,11.36-22.24.5-46.77-8-58.39-28.44a52.49,52.49,0,0,1-5.51-36.47c-3.16.33-5,.66-5,.66-12.13,33.77,16.67,64.93,48.58,71A90.28,90.28,0,0,0,157.24,132.29Z"/></g></g></svg>