<svg xmlns="http://www.w3.org/2000/svg" viewBox="0 0 285.61 204.87"><defs><style>.cls-1{isolation:isolate;}.cls-10,.cls-2,.cls-7{fill:#231f20;}.cls-2{opacity:0.1;}.cls-3{fill:#41464f;}.cls-4{fill:#61472e;}.cls-5{fill:#fbb040;}.cls-6{fill:#a97c50;}.cls-7,.cls-9{opacity:0.1;}.cls-8,.cls-9{fill:#fff;mix-blend-mode:overlay;}.cls-8{opacity:0.05;}.cls-10{opacity:0.2;}.cls-11{fill:#cf9862;}.cls-12{fill:#fbcd88;}</style></defs><title>Asset 18</title><g class="cls-1"><g id="Layer_2" data-name="Layer 2"><g id="Layer_1-2" data-name="Layer 1"><path class="cls-2" d="M15.67,187.39H285.61S161.12,226.73,15.67,187.39Z"/><path class="cls-3" d="M218.62,192.92h5.85l3-6.26c-2.32-.07-4.63-.18-6.94-.31Z"/><path class="cls-4" d="M229.08,155.53s8.37-17.85-20.09-30.83l.56,33.07s4.18,15.48,13.39,20.5l-2.38,8.08c2.31.13,4.62.24,6.94.31l10.79-22.34Z"/><path class="cls-5" d="M37.84,136.52l-8.53,9.72S13.91,138,13.82,121.55C13.82,121.55,25.17,132.16,37.84,136.52Z"/><path class="cls-4" d="M281.17,69.93c-2.57-6.23-12.13-8.12-16.41-2.57a6.06,6.06,0,0,0,1.49,8.6c1.66,1,4.46.39,5.24-1.53,1.16-2.87-2.85-3.43-4.64-2.31a3.62,3.62,0,0,1,.68-3.08c1-1.31,2.89-1.57,4.45-1.57a6.16,6.16,0,0,1,6,4.63c1.06,4-1.41,9-4.05,11.8-5.66,6-15.67,6.4-22.06,1.29-1.68-1.35-4.1,1-2.4,2.41,6.43,5.3,15.23,6.94,22.67,2.48C278.27,86.4,284.21,77.29,281.17,69.93Z"/><path class="cls-6" d="M149.7,163.21l-15.49-1s-2.62,13.1-6.19,24.18c3.08.26,6.17.46,9.25.64Z"/><path class="cls-7" d="M149.7,163.21l-15.49-1s-2.62,13.1-6.19,24.18c3.08.26,6.17.46,9.25.64Z"/><path class="cls-3" d="M128,186.36a85,85,0,0,1-3,8.1h8.37l3.9-7.46C134.19,186.82,131.1,186.62,128,186.36Z"/><path class="cls-6" d="M254,86.55C232.94,43.68,177.1,15,130.3,29.69L98.08,16.3l2.09,5.44-13-5.86,3.35,6.28-19.25-.84S65.15,143.82,5.86,142l13.31,22.32,239.62-1.11c2.17,0,4.45-22.17,4.58-23.81C264.81,121.34,262,102.89,254,86.55Z"/><polygon class="cls-6" points="182.2 29.34 210.1 31.02 204.52 34.36 220.71 38.83 210.1 41.62 182.2 29.34"/><path class="cls-8" d="M47.43,131.46c29.3,8.37,58.6,5.86,87.9,0,40-7.78,85.24-24.81,112.06-56.22C222.87,38.83,172.85,16.35,130.3,29.69L98.08,16.3l2.09,5.44-13-5.86,3.35,6.28-19.25-.84S67.24,102,34,131.45C38.68,131.37,42.69,130.67,47.43,131.46Z"/><path class="cls-9" d="M76.41,55.44c-3.52,1.79-7,4.54-7.66,8.69-.87,5.92,3.07,8.76,8.28,9.65a78.1,78.1,0,0,0,29.62-.67c3.78-.82,7.87-2.2,9.78-5.57,4.86-8.57-5.7-15-12.69-15.73a60.32,60.32,0,0,0-21.12,1.36A29.56,29.56,0,0,0,76.41,55.44Z"/><path class="cls-10" d="M247.39,157.19a59.68,59.68,0,0,1-6.57-21.62c-4.59,1.9-9.22,3.72-13.89,5.39a199.09,199.09,0,0,1-26.71,7.32c-16.22,3.33-32.77,5.39-49.22,7.1-9.75,1-19.54,1.61-29.34,1.87A442.44,442.44,0,0,1,64.8,155c-18.62-1.94-37.65-4.06-56-8.17l10.42,17.47,230.56-1.07A61.25,61.25,0,0,1,247.39,157.19Z"/><path class="cls-3" d="M147.88,194.46h8.37l3.28-6.55-8.93-.32C149.6,190.31,148.67,192.68,147.88,194.46Z"/><path class="cls-6" d="M163.37,148.29s-7.43,24.75-12.77,39.3l8.93.32,19.32-38.59Z"/><path class="cls-6" d="M268,169.48l-9.21-8.79s10-23-18.41-36L232,157.77s8.37,15.48,17.58,20.5l.24,8.42q4.71-.12,9.42-.3Z"/><path class="cls-3" d="M249.83,186.69l.18,6.23h5.85l3.39-6.53Q254.54,186.57,249.83,186.69Z"/><path class="cls-4" d="M129.88,32.92C127.22,22,126.3,9.88,131.69,0c1.58.86,2.06,2.87,2.28,4.65A54,54,0,0,1,129.88,32.92Z"/><path class="cls-4" d="M65.07,2.63a50,50,0,0,1,8.58,22.12A51.41,51.41,0,0,1,63.55,5.83,14.81,14.81,0,0,1,62.82.28,7.77,7.77,0,0,1,65.07,2.63Z"/><path class="cls-11" d="M0,141.65l31.53.84S28,158.18,19.17,164.32C19.17,164.32,3.07,162,0,141.65Z"/><path class="cls-7" d="M20.23,156.85A76.26,76.26,0,0,1,5.4,155.4a22.93,22.93,0,0,0,13.77,8.92,24.32,24.32,0,0,0,6.61-7.5Q23,157,20.23,156.85Z"/><path class="cls-12" d="M61.66,150.65l-11.3,6.28s-11.72-13-6.27-28.46C44.09,128.47,51.2,142.28,61.66,150.65Z"/><path class="cls-4" d="M8.84,147.19a1.17,1.17,0,0,0-1.63-.4c-1.45.67-.93,3.1-.5,4.3a15.22,15.22,0,0,0,2,3.51C9.16,153.4,9.92,148.75,8.84,147.19Z"/><path class="cls-4" d="M21,147.19a1.18,1.18,0,0,0-1.63-.4c-1.45.67-.94,3.1-.51,4.3a16,16,0,0,0,2,3.51C21.3,153.4,22.06,148.75,21,147.19Z"/><path class="cls-4" d="M82.89,61.75a26.64,26.64,0,0,1-.84,3.53c-.29.9-1.35,5.34-3.07,4.43-.45-.24-.55-.83-.59-1.33a40.67,40.67,0,0,1,.2-6.89l-1.73.07a32.61,32.61,0,0,0,.06,8c.21,1.37.81,2.64,2.42,2.51,1.77-.15,2.52-1.85,3.2-3.27A28,28,0,0,0,84.71,62Z"/><path class="cls-4" d="M102,59.24a25.16,25.16,0,0,1-.84,3.53c-.29.9-1.35,5.34-3.06,4.43a1.57,1.57,0,0,1-.6-1.34A41.65,41.65,0,0,1,97.7,59L96,59.05A33,33,0,0,0,96,67c.21,1.38.81,2.65,2.42,2.52,1.77-.15,2.53-1.85,3.21-3.27a28,28,0,0,0,2.16-6.73Z"/><path class="cls-8" d="M126.62,50.24c-4-11.41-16.71-16.47-31.46-18a123.46,123.46,0,0,0-24.82.3c-2.15,20.23-8.72,63-27.27,88.7,6.31,0,12.53.29,18.92-.67,15.89-2.39,31.32-8.69,43.49-19.31C119,89.53,133.25,68.94,126.62,50.24Z"/></g></g></g></svg>