<svg xmlns="http://www.w3.org/2000/svg" xmlns:xlink="http://www.w3.org/1999/xlink" viewBox="0 0 269.94 320.39"><defs><style>.cls-1{isolation:isolate;}.cls-2,.cls-7{fill:#231f20;}.cls-2{opacity:0.1;}.cls-3{fill:#3d424a;}.cls-4{fill:#2b2e33;}.cls-5{fill:url(#linear-gradient);}.cls-6{fill:#fff;mix-blend-mode:overlay;}.cls-6,.cls-7{opacity:0.1;}.cls-8{fill:#e6e0d9;}.cls-9{fill:#4e545e;}.cls-10{fill:url(#linear-gradient-2);}.cls-11{fill:#414042;}.cls-12{fill:#444952;}</style><linearGradient id="linear-gradient" x1="164.06" y1="127.79" x2="164.06" y2="303.06" gradientUnits="userSpaceOnUse"><stop offset="0" stop-color="#4e545e"/><stop offset="1" stop-color="#363b42"/></linearGradient><linearGradient id="linear-gradient-2" x1="120.04" y1="242.19" x2="120.04" y2="307.51" xlink:href="#linear-gradient"/></defs><title>Asset 22</title><g class="cls-1"><g id="Layer_2" data-name="Layer 2"><g id="Layer_1-2" data-name="Layer 1"><path class="cls-2" d="M0,296.32H269.94S145.45,350.48,0,296.32Z"/><path class="cls-3" d="M179.77,85a34.74,34.74,0,0,1-6.67-28.19l16.45,13.41Z"/><path class="cls-3" d="M192.6,73a39.95,39.95,0,0,1-9.33-32.49l19.12,17.72Z"/><path class="cls-4" d="M187.77,295.69c-1.75-1-3.94-.83-6-.59-6.46.76-13.62,1.57-20.08,2.34,3.21-8.05,7.12-17.52,10.33-25.57,4.73-11.85,10.37-26.09,9-39.06-4-37.11-46.67-4.56-57.47,10.34-6.69,9.24-11.49,19.68-15.45,30.34-.85,2.28-7.77,27.33-6.09,27.3,26.23-.46,60.38.45,86.61,0C190.28,299.57,189.53,296.73,187.77,295.69Z"/><path class="cls-5" d="M256.86,77.66c-.59-7.07-4.63-13.55-10-18.15C236.61,50.8,219.48,47.79,207,52.57c-10.73,4.1-19.31,12.7-25.13,22.6-8.12,13.82-11.35,30-14.63,45.53q-2.82,13.35-5.83,26.68c-.92,4-2.81,23.3-6.05,25.24-23.49,14.06-47.52,28.58-64.53,50s-25.76,51.66-14.77,76.74l57.19-1.33c-2.74-18.32,8.59-36.27,23.21-47.65,7.27-5.65,16-9,23.94-13.44,2.89-1.62,23.27-9.74,22.78-12.54l5.05,29.33c.53,4.46-.46,8.19-1.65,12.52a11.72,11.72,0,0,0,3.29-1.52,31.08,31.08,0,0,1-1.18,11.66l2.66-1.46a25.82,25.82,0,0,1-1.67,10.33,15.29,15.29,0,0,0,3.65-.93l3.83,16.56H235a8.41,8.41,0,0,0-4.14-6.21,8.14,8.14,0,0,0-7.3-.47L212.45,215.7a42.4,42.4,0,0,0,4.66-7.07c5.56-10.68,7.34-23,7.39-35l8.47,4.83c-.72-8.37,2-25,2-25l6,5.94c-1.28-10.07-1-30.39-1-30.39l7.53,5.15A64.27,64.27,0,0,1,250,103.86C252.83,95.22,257.62,86.74,256.86,77.66Z"/><path class="cls-6" d="M224.44,63.1c1.63-3.91,3.18-7.86,4.53-11.87-7.49-1.52-15.38-1.19-22,1.34-.53.2-1.05.42-1.57.65a130.35,130.35,0,0,0-9.14,20.7,20.69,20.69,0,0,0-1.5,8.22c.23,2.8,1.75,5.66,4.35,6.71C202,90,205.32,88.71,207.9,87,216.06,81.5,220.66,72.17,224.44,63.1Z"/><path class="cls-7" d="M256.86,77.66A25.68,25.68,0,0,0,251,63.8c2.07,2.56-10.35,27.63-11.73,30.9-14.17,33.45-39.26,83.92-83.45,77.51a2.15,2.15,0,0,1-.46.41c-23.49,14.06-47.52,28.58-64.53,50s-25.76,51.66-14.77,76.74l57.19-1.33c-2.74-18.32,8.59-36.27,23.21-47.65,7.27-5.65,16-9,23.94-13.44,2.89-1.62,23.27-9.74,22.78-12.54l5.05,29.33c.53,4.46-.46,8.19-1.65,12.52a11.72,11.72,0,0,0,3.29-1.52,31.08,31.08,0,0,1-1.18,11.66l2.66-1.46a25.82,25.82,0,0,1-1.67,10.33,15.29,15.29,0,0,0,3.65-.93l3.83,16.56H235a8.41,8.41,0,0,0-4.14-6.21,8.14,8.14,0,0,0-7.3-.47L212.45,215.7a42.4,42.4,0,0,0,4.66-7.07c5.56-10.68,7.34-23,7.39-35l8.47,4.83c-.72-8.37,2-25,2-25l6,5.94c-1.28-10.07-1-30.39-1-30.39l7.53,5.15A64.27,64.27,0,0,1,250,103.86C252.83,95.22,257.62,86.74,256.86,77.66Z"/><polygon class="cls-8" points="253.31 58.32 249.96 52.32 256.1 50.5 251.77 45.2 258.33 43.39 254.01 39.34 260.7 37.53 255.96 32.37 263.35 31.11 258.89 25.25 264.75 25.67 265.59 31.67 261.26 44.78 254.98 58.87 253.31 58.32"/><path class="cls-9" d="M264.19,24.28,250.3,65.41l-.34,1,6.42,19.53L269.49,36C271.17,28.74,264.19,24.28,264.19,24.28Z"/><path class="cls-7" d="M264.19,24.28,250.3,65.41l-.34,1,6.42,19.53L269.49,36C271.17,28.74,264.19,24.28,264.19,24.28Z"/><path class="cls-9" d="M27.06,234.07a36.92,36.92,0,0,1,5-12.64A112.26,112.26,0,0,0,50,268.4l3.8-15c2.06,9.57,4.17,19.26,8.64,28s11.65,16.45,21,19.46c-25.87,2-52-11.7-66.36-33.28s-17.24-50-9-74.62A94.81,94.81,0,0,0,27.06,234.07Z"/><path class="cls-7" d="M62.46,281.33c-.7-1.36-1.33-2.75-1.92-4.15A46.05,46.05,0,0,1,53.59,279a71.94,71.94,0,0,1-27.4-.31c14.93,15,36.16,23.78,57.23,22.14C74.11,297.78,66.93,290,62.46,281.33Z"/><path class="cls-10" d="M162.28,295.69c-1.75-1-3.94-.83-6-.59-6.46.76-13.62,1.57-20.08,2.34,3.21-8.05,7.12-17.52,10.33-25.57,4.73-11.85,10.37-26.09,9-39.06-2.33-21.86-29.11-16.49-43.47-7.43C98.7,233.83,87.42,246,81.36,260.72a68.24,68.24,0,0,0-4.82,23.52c-.06,1.47-1.16,16.57,0,16.55,26.22-.46,60.38.45,86.61,0C164.79,299.57,164,296.73,162.28,295.69Z"/><path class="cls-7" d="M162.28,295.69c-1.75-1-3.94-.83-6-.59-6.46.76-13.62,1.57-20.08,2.34,3.21-8.05,7.12-17.52,10.33-25.57,1.23-3.09,2.53-6.34,3.74-9.69a72.74,72.74,0,0,1-16.06,13.57c-9.58,5.95-21.62,9.71-32.95,9.6a49.82,49.82,0,0,1-19.85-4.29q-2.3-1-4.53-2.11c-.18,1.75-.31,3.51-.38,5.29-.06,1.47-1.16,16.57,0,16.55,26.22-.46,60.38.45,86.61,0C164.79,299.57,164,296.73,162.28,295.69Z"/><polygon class="cls-8" points="243.26 55.25 248.56 54.41 246.05 49.95 251.08 48.27 247.73 43.81 253.03 42.69 249.68 37.39 255.26 36.55 251.63 30.97 257.49 29.02 253.87 24 259.45 22.6 255.26 17.86 260.84 17.02 256.38 12.56 262.52 11.44 259.17 6.42 254.15 8.09 240.47 51.34 243.26 55.25"/><polygon class="cls-9" points="230.71 54.69 252.75 4.18 259.17 6.42 242.99 60.83 230.71 54.69"/><path class="cls-11" d="M255.54,5l-5.86-5S248,6.42,251.36,10.32Z"/><path class="cls-11" d="M206.73,67.54c-.76-.88-2,.4-1.27,1.27,1.64,1.88,4,5.34,3.17,8-1.28,4-5.87-.5-7.54-1.8-.9-.7-2.19.53-1.28,1.28,2.55,2.09,6.92,6.41,9.92,2.5C212.48,75.17,209.16,70.31,206.73,67.54Z"/><path class="cls-11" d="M216,58c-.83-.85-2.09.43-1.29,1.29,1.55,1.69,4.8,5.75,3.62,8.2-1.66,3.46-6.46-.89-8-2.64-.77-.88-2,.4-1.28,1.27,2.1,2.39,7.38,6.91,10.35,3.42S218.55,60.52,216,58Z"/><path class="cls-12" d="M170.44,253.76c.53,4.46-.46,8.19-1.65,12.52a11.72,11.72,0,0,0,3.29-1.52,31.08,31.08,0,0,1-1.18,11.66l2.66-1.46a26,26,0,0,1-1.67,10.33,15.29,15.29,0,0,0,3.65-.93l3.83,16.56h17.86a8.43,8.43,0,0,0-4.14-6.21,8.14,8.14,0,0,0-7.3-.47l-3.83-30-3.26-25.64c-1.15-9-1.15-18.69-4.9-27.09-2.36-5.29-6.39-10-11.77-12.21C165,216.74,170.44,236,170.44,253.76Z"/><path class="cls-7" d="M170.44,253.76c.53,4.46-.46,8.19-1.65,12.52a11.72,11.72,0,0,0,3.29-1.52,31.08,31.08,0,0,1-1.18,11.66l2.66-1.46a26,26,0,0,1-1.67,10.33,15.29,15.29,0,0,0,3.65-.93l3.83,16.56h17.86a8.43,8.43,0,0,0-4.14-6.21,8.14,8.14,0,0,0-7.3-.47l-3.83-30-3.26-25.64c-1.15-9-1.15-18.69-4.9-27.09-2.36-5.29-6.39-10-11.77-12.21C165,216.74,170.44,236,170.44,253.76Z"/></g></g></g></svg>